<ttFont>
          <CharString index="0">
            60 402 rmoveto
            -230 103 -192 250 139 100 61 65 65 vhcurveto
            -82 3 68 -44 99 hhcurveto
            157 98 108 36 25 94 callgsubr
            -48 -26 -9 -19 hhcurveto
            -30 -15 22 54 6 hvcurveto
            129 936 -152 -43 rlineto
            21 -61 -97 22 -80 hhcurveto
            -453 -233 -372 -389 hvcurveto
            494 -248 rmoveto
            -91 -57 95 164 267 73 343 243 24 22 -2 -4 22 hvcurveto
            -110 -808 rlineto
            -32 -36 -43 -23 -47 hhcurveto
            return
          </CharString>
          <CharString index="1">
            rmoveto
            -228 1 116 -231 321 153 callsubr
            153 -22 callgsubr
            -86 -96 -159 hhcurveto
            -116 -71 97 208 hvcurveto
            252 6 377 122 -10 330 rrcurveto
            141 -6 -95 111 -228 hhcurveto
            -367 -284 -308 -427 2 hvcurveto
            359 145 rmoveto
            186 11 51 264 154 hhcurveto
            53 25 -48 -91 4 hvcurveto
            6 -197 -187 -107 -117 -7 rrcurveto
            return
          </CharString>
          <CharString index="2">
            rmoveto
            -340 6 164 -303 407 hhcurveto
            186 131 37 30 118 hvcurveto
            59 16 88 13 43 4 89 669 rcurveline
            -556 hlineto
            -19 -146 202 -17 -53 -427 rlineto
            -21 -58 -70 -7 -93 hhcurveto
            -188 -83 231 292 407 100 347 370 69 59 -17 -26 48 hvcurveto
            10 -231 rlineto
            241 hlineto
            65 333 -62 11 rlineto
            21 -88 -96 38 -249 hhcurveto
            -562 -288 -366 -548 10 hvcurveto
            1133 636 rmoveto
            -21 28 8 -9 7 -10 6 -9 rlinecurve
            return
          </CharString>
          <CharString index="3">
            rmoveto
            -37 45 207 -61 224 hhcurveto
            400 187 224 241 201 -144 140 -168 106 hvcurveto
            -195 123 -88 80 145 vvcurveto
            105 82 73 145 69 40 -17 -31 40 vhcurveto
            30 -202 rlineto
            191 hlineto
            54 302 rlineto
            37 -64 -118 37 -217 hhcurveto
            -329 -240 -157 -290 -208 148 -140 177 -113 hvcurveto
            186 -119 73 -77 -128 vvcurveto
            -113 -67 -90 -200 -85 -61 26 35 -45 vhcurveto
            -11 226 rlineto
            -206 hlineto
            133 -130 rmoveto
            -3 5 -2 3 -2 5 rrcurveto
            return
          </CharString>
          <CharString index="4">
            683 hlineto
            7 106 -175 -13 callsubr
            172 -62 callsubr
            -671 hlineto
            -12 178 callgsubr
            138 callgsubr
            -150 -30 rlineto
            return
          </CharString>
          <CharString index="5">
            135 rmoveto
            -138 -29 -8 -106 rlineto
            558 hlineto
            8 106 -188 30 118 280 rlineto
            487 hlineto
            40 -281 -157 -29 -5 -106 rlineto
            689 hlineto
            6 106 -161 32 -247 1384 rlineto
            -347 hlineto
            -241 -955 rmoveto
            315 741 9 -191 78 -550 rlineto
            return
          </CharString>
          <CharString index="6">
            hintmask 00000000
            hintmask 10001010
            117 235 -98 callsubr
            hintmask 01010010
            -85 callgsubr
            hintmask 10100010
            -94 callsubr
            hintmask 10001010
            -93 callsubr
            hintmask 00000101
            return
          </CharString>
          <CharString index="7">
            -103 callgsubr
            endchar
          </CharString>
          <CharString index="8">
            rmoveto
            -350 165 -303 452 171 callgsubr
            89 63 77 vhcurveto
            43 284 -201 -1 -21 -76 -23 -83 -36 -41 rlinecurve
            -74 -76 -97 0 -44 hhcurveto
            -190 -81 175 337 -9 hvcurveto
            334 -9 132 421 318 hhcurveto
            35 32 -7 -11 28 hvcurveto
            40 -310 rlineto
            253 hlineto
            61 400 -33 9 rlineto
            17 -74 -62 31 -223 hhcurveto
            -537 -352 -333 -571 hvcurveto
            return
          </CharString>
          <CharString index="9">
            rmoveto
            -193 3 169 -62 120 hhcurveto
            176 103 88 78 68 hvcurveto
            4 -3 rlineto
            -96 -16 56 -57 callsubr
            return
          </CharString>
          <CharString index="10">
            180 180 98 116 29 22 vhcurveto
            -28 73 rlineto
            -36 -48 -20 -10 -22 hhcurveto
            -20 -19 7 48 74 25 123 17 102 hvcurveto
            return
          </CharString>
          <CharString index="11">
            rmoveto
            291 147 100 233 31 hvcurveto
            1 11 1 11 11 vvcurveto
            -218 hlineto
            -31 -9 -40 -39 -6 hvcurveto
            -89 -14 -6 -89 178 callsubr
            -29 46 59 hvcurveto
            33 9 39 34 vvcurveto
            26 -7 20 -22 vhcurveto
            -274 hlineto
            -9 -30 0 -28 -27 vvcurveto
            -194 127 -87 271 vhcurveto
            return
          </CharString>
          <CharString index="12">
            -82 callgsubr
            hintmask 10101000
            -76 callgsubr
            hintmask 11001000
            -38 callsubr
            hintmask 10101000
            77 callgsubr
            hintmask 11001000
            -7 -59 0 -54 -52 vvcurveto
            endchar
          </CharString>
          <CharString index="13">
            -92 callgsubr
            69 550 rlineto
            return
          </CharString>
          <CharString index="14">
            -52 24 -403 -32 -16 -89 126 -80 -54 -365 -18 -124 -25 -144 1 -94 rlinecurve
            return
          </CharString>
          <CharString index="15">
            -38 -53 -16 -8 -23 hhcurveto
            -30 -17 24 52 7 hvcurveto
            128 928 rlineto
            -326 hlineto
            return
          </CharString>
          <CharString index="16">
            -85 callsubr
            145 -26 return
          </CharString>
          <CharString index="17">
            hintmask 00000000
            hintmask 11001000
            183 hmoveto
            828 hlineto
            10 106 -245 30 61 469 515 781 130 26 15 -61 callsubr
            -533 hlineto
            hintmask 10101000
            -10 -9 callgsubr
            hintmask 11001000
            164 -26 -299 -505 -62 -121 -46 148 -162 478 171 26 17 -61 callsubr
            -704 hlineto
            hintmask 10101000
            -12 -110 131 -26 331 -781 -58 -469 -230 -30 rlineto
            return
          </CharString>
          <CharString index="18">
            hintmask 00000000
            hintmask 10101000
            -74 callgsubr
            hintmask 11001000
            52 callgsubr
            hintmask 10101000
            -76 callsubr
            return
          </CharString>
          <CharString index="19">
            rmoveto
            119 46 251 211 36 68 -192 187 rcurveline
            -317 -431 rlineto
            return
          </CharString>
          <CharString index="20">
            -90 callgsubr
            -166 -1250 -138 -30 rlineto
            return
          </CharString>
          <CharString index="21">
            -116 -54 81 210 -5 hvcurveto
            322 -8 132 224 109 hhcurveto
            44 82 -132 -71 46 hvcurveto
            73 hlineto
            83 322 rlineto
            26 -67 -107 12 -82 hhcurveto
            -443 -209 -374 -339 6 hvcurveto
            return
          </CharString>
          <CharString index="22">
            -62 callsubr
            -675 hlineto
            -14 -110 return
          </CharString>
          <CharString index="23">
            rmoveto
            -22 38 90 -16 68 hhcurveto
            250 104 182 130 65 hvcurveto
            489 1099 104 24 123 callsubr
            -431 170 callsubr
            151 -28 -225 -576 -76 -197 -38 195 -141 580 165 26 10 -61 callsubr
            -643 hlineto
            -13 -110 81 -24 346 -1087 rlineto
            -71 -24 -73 -10 -134 hhcurveto
            -165 hlineto
            return
          </CharString>
          <CharString index="24">
            rmoveto
            252 98 188 159 11 0 12 -1 11 hvcurveto
            -182 hlineto
            -80 -3 -12 -84 -147 hhcurveto
            -116 -13 59 60 hvcurveto
            16 1 15 14 vvcurveto
            -184 hlineto
            -3 -22 -2 -23 -23 vvcurveto
            -150 74 -163 238 vhcurveto
            endchar
          </CharString>
          <CharString index="25">
            -81 callsubr
            endchar
          </CharString>
          <CharString index="26">
            rmoveto
            237 154 126 -22 callgsubr
            -72 -59 -129 hhcurveto
            -86 callsubr
            -311 5 148 -159 235 hhcurveto
            return
          </CharString>
          <CharString index="27">
            rmoveto
            307 hlineto
            389 934 90 -934 rlineto
            310 hlineto
            653 1396 160 27 10 109 rlineto
            -594 hlineto
            -10 -110 227 -27 -375 -875 -86 -208 -7 208 -84 875 150 27 9 -61 callsubr
            -656 hlineto
            -10 -109 160 -28 13 -144 -305 -731 -79 -208 -23 208 -94 873 137 29 9 -61 callsubr
            -632 hlineto
            -14 -109 138 -28 rlineto
            return
          </CharString>
          <CharString index="28">
            404 -20 rmoveto
            168 108 90 77 56 hvcurveto
            -109 8 49 -58 119 hhcurveto
            164 92 117 27 23 94 callgsubr
            -49 -24 -9 -19 hhcurveto
            -32 -10 30 48 7 hvcurveto
            202 1394 -56 27 -432 -42 -19 -83 156 -43 rlineto
            return
          </CharString>
          <CharString index="29">
            rmoveto
            -58 -184 rlineto
            -69 callsubr
            -138 -1146 rlineto
            -41 callgsubr
            rrcurveto
            -428 143 rmoveto
            -47 callgsubr
            hintmask 1100011010000000
            -15 callgsubr
            -9 -55 -136 -63 rlineto
            hintmask 1101000110000000
            46 callgsubr
            1301 -855 -100 callgsubr
            hintmask 1110000110000000
            52 callgsubr
            hintmask 1100100110000000
            -55 24 -400 -52 -16 -89 115 -64 rlineto
            hintmask 1101000110000000
            -51 -384 -37 -286 -24 -159 rrcurveto
            endchar
          </CharString>
          <CharString index="30">
            1148 hlineto
            104 577 -181 23 -211 -451 -359 -20 166 1257 182 -62 callsubr
            -679 hlineto
            -13 -110 146 -26 -165 -53 callsubr
            return
          </CharString>
          <CharString index="31">
            -55 24 -400 -52 -16 -89 115 -64 -51 -384 -37 -286 -24 -159 rlinecurve
            return
          </CharString>
          <CharString index="32">
            169 1266 240 -26 18 -439 181 2 85 583 rlineto
            -1370 hlineto
            -99 -585 rlineto
            188 hlineto
            165 439 143 callgsubr
          </CharString>
          <CharString index="33">
            -166 -190 -5 -41 rlineto
            63 -7 37 -59 -86 vvcurveto
            -140 -96 -144 -105 -35 vhcurveto
            -2 -22 66 -106 rlineto
            180 74 221 174 271 vvcurveto
            146 -59 129 -134 36 vhcurveto
            return
          </CharString>
          <CharString index="34">
            -92 62 -69 75 96 106 64 136 82 -49 79 -99 -91 -100 -75 -125 vhcurveto
            return
          </CharString>
          <CharString index="35">
            88 callgsubr
            107 498 -327 -63 callgsubr
            330 1209 -100 callsubr
          </CharString>
          <CharString index="36">
            rmoveto
            -137 95 -42 98 218 131 101 66 58 vhcurveto
            -25 80 rlineto
            5 callgsubr
            83 604 32 callsubr
            -189 hlineto
            -42 -100 -59 -116 -60 -50 -122 -47 rcurveline
            -24 -109 rlineto
            119 hlineto
            -81 -596 rlineto
            -27 -200 0 -24 -15 vvcurveto
            return
          </CharString>
          <CharString index="37">
            rmoveto
            219 130 154 227 hvcurveto
            -180 hlineto
            -63 -17 -101 -147 -127 -1 71 93 vhcurveto
            -185 hlineto
            -4 -22 -2 -23 -23 vvcurveto
            -130 36 -183 278 vhcurveto
            return
          </CharString>
          <CharString index="38">
            36 callsubr
            62 178 85 callgsubr
            return
          </CharString>
          <CharString index="39">
            1469 -16 153 callgsubr
            -106 148 1237 137 -136 34 callgsubr
            -102 86 0 -20 hstemhm
            1120 377 -45 1359 hintmask 0000000000000000
            hintmask 0100010010000000
            -35 hmoveto
            45 callsubr
            hintmask 1000010010000000
            -56 callsubr
            hintmask 1000000110000000
            18 callgsubr
            hintmask 1000010010000000
            114 callsubr
            hintmask 0100100010000000
            19 callgsubr
            hintmask 1000010010000000
            -65 callsubr
            hintmask 0000000000000000
            1000 -136 17 callsubr
            hintmask 0011000001000000
            159 callsubr
            hintmask 0010001001000000
            -35 callsubr
            return
          </CharString>
          <CharString index="40">
            61 -373 222 10 123 144 146 168 300 438 -3 205 rlinecurve
            108 -2 -49 108 -132 hhcurveto
            -104 -54 -60 -78 hvcurveto
            -72 33 -83 -68 vvcurveto
            -166 -55 -140 -113 -178 vhcurveto
            -47 -79 -16 166 rlineto
            return
          </CharString>
          <CharString index="41">
            676 hlineto
            6 106 -184 30 66 525 rlineto
            68 115 1 0 hvcurveto
            34 -49 82 -245 65 -180 34 -93 29 -95 27 1 415 -2 rcurveline
            10 107 -123 3 -27 81 -81 179 rlinecurve
            -31 81 -69 190 -53 62 rrcurveto
            210 74 128 165 215 vvcurveto
            238 -122 144 -414 vhcurveto
            return
          </CharString>
          <CharString index="42">
            509 30 rmoveto
            166 1250 rlineto
            11 19 60 15 80 hhcurveto
            212 97 -146 -380 -339 -128 -436 -370 -39 -58 11 14 -39 hvcurveto
            return
          </CharString>
          <CharString index="43">
            -15 callsubr
            -82 -613 rlineto
            -41 -57 -120 -11 -89 hhcurveto
            -170 0 104 359 34 hvcurveto
            31 202 170 -91 callsubr
            -45 -350 rlineto
            -398 -48 174 -58 295 hhcurveto
            110 140 30 50 92 hvcurveto
            -69 -524 return
          </CharString>
          <CharString index="44">
            695 30 callsubr
            hstemhm
            1391 33 callsubr
            hintmask 00000000
            hintmask 01010100
            90 callsubr
            hintmask 01100100
            -59 callsubr
            hintmask 10011000
            -22 callsubr
            -77 23 -94 -97 callsubr
            hintmask 01100100
            -28 callsubr
            hintmask 01010100
            16 212 rlineto
            hintmask 01100100
            63 callgsubr
            endchar
          </CharString>
          <CharString index="45">
            26 -46 callsubr
            return
          </CharString>
          <CharString index="46">
            110 rlineto
            return
          </CharString>
          <CharString index="47">
            100 callsubr
            -61 -57 -68 -50 -20 vhcurveto
            73 -82 rlineto
            118 29 164 133 106 vvcurveto
            return
          </CharString>
          <CharString index="48">
            122 63 102 101 70 hhcurveto
            63 27 -20 -125 3 hvcurveto
            3 -116 -19 -152 -14 -109 -57 -443 rcurveline
            335 hlineto
            59 505 11 77 9 93 4 83 rlinecurve
            124 63 97 83 77 -75 callgsubr
            return
          </CharString>
          <CharString index="49">
            221 79 42 99 96 vvcurveto
            112 -111 77 -179 -164 -150 -58 -68 -80 vhcurveto
            58 -115 rlineto
            47 67 68 37 91 hhcurveto
            85 32 -34 -53 -77 -68 -58 -72 -38 hvcurveto
            -42 -22 -44 -15 -32 -9 28 -131 rcurveline
            114 34 rlineto
            1 5 5 0 4 hhcurveto
            return
          </CharString>
          <CharString index="50">
            -67 143 hhcurveto
            159 101 111 33 20 hvcurveto
            return
          </CharString>
          <CharString index="51">
            -3 19 37 -4 19 hhcurveto
            636 260 387 550 350 -170 269 -483 -2 hvcurveto
            return
          </CharString>
          <CharString index="52">
            -65 callgsubr
            endchar
          </CharString>
          <CharString index="53">
            -8 33 84 -16 73 hhcurveto
            315 150 325 271 33 hvcurveto
            110 901 rlineto
            return
          </CharString>
          <CharString index="54">
            -1250 -138 -30 rlineto
            return
          </CharString>
          <CharString index="55">
            48 435 -104 callgsubr
            return
          </CharString>
          <CharString index="56">
            0 106 -103 -21 1404 110 callsubr
            -88 2131 -505 296 hintmask 00000000
            hintmask 10101000
            -88 hmoveto
            614 hlineto
            10 107 -225 29 209 866 87 385 54 -375 rlineto
            hintmask 01101000
            136 -1030 169 15 439 1039 rlineto
            hintmask 10100100
            143 350 -20 -398 -57 -852 -189 -28 -9 -108 rlineto
            return
          </CharString>
          <CharString index="57">
            323 hlineto
            107 779 rlineto
            29 37 78 13 81 hhcurveto
            66 39 -25 -10 8 hvcurveto
            69 357 rlineto
            7 -10 -25 13 -35 hhcurveto
            -161 -122 -139 -158 -45 hvcurveto
            14 263 -53 34 -331 131 callsubr
          </CharString>
          <CharString index="58">
            -150 -29 rlineto
            498 4 rmoveto
            87 662 rlineto
            9 26 54 4 39 hhcurveto
            131 87 -110 -149 -245 -111 -175 -205 -48 -33 1 3 -27 hvcurveto
            endchar
          </CharString>
          <CharString index="59">
            -8 callgsubr
            368 hlineto
            12 106 -75 30 69 callgsubr
            rlinecurve
            485 561 -8 callsubr
            74 556 136 callsubr
            return
          </CharString>
          <CharString index="60">
            -3 120 4 -147 177 hhcurveto
            104 113 94 87 34 hvcurveto
            -88 131 rlineto
            -48 -38 -40 -52 -74 -99 -25 150 -155 hhcurveto
            return
          </CharString>
          <CharString index="61">
            12 -61 callsubr
            return
          </CharString>
          <CharString index="62">
            32 11 callgsubr
            0 -20 382 -20 hstemhm
            728 33 callsubr
            hintmask 00000000
            hintmask 01011010
            71 177 callsubr
            86 705 rlineto
            hintmask 01101010
            139 62 106 121 82 -75 callgsubr
            hintmask 10011100
            -22 callsubr
            -87 23 -84 -97 callsubr
            hintmask 01011010
            -69 callgsubr
            -163 -133 -100 -148 -88 vhcurveto
            87 708 60 callgsubr
            rlineto
            endchar
          </CharString>
          <CharString index="63">
            rrcurveto
            -128 -6 -75 -37 -102 hhcurveto
            -31 -30 7 9 -17 hvcurveto
            -35 -153 rlineto
            -16 22 123 -12 53 hhcurveto
            81 callgsubr
            return
          </CharString>
          <CharString index="64">
            -3 120 4 -147 177 hhcurveto
            114 103 94 87 34 hvcurveto
            -88 131 rlineto
            -38 -28 -50 -62 -74 hhcurveto
            return
          </CharString>
          <CharString index="65">
            rmoveto
            571 hlineto
            20 209 rlineto
            -571 hlineto
            return
          </CharString>
          <CharString index="66">
            65 2 callgsubr
            return
          </CharString>
          <CharString index="67">
            -1 callsubr
            hintmask 10010010
            -67 callsubr
            hintmask 01010010
            -1 callgsubr
            hintmask 01100010
            -37 callsubr
            endchar
          </CharString>
          <CharString index="68">
            -96 -13 67 -98 158 hhcurveto
            132 111 84 60 37 94 callgsubr
            -46 -29 -9 -17 hhcurveto
            -31 -16 28 48 7 hvcurveto
            return
          </CharString>
          <CharString index="69">
            101 763 198 27 10 109 rlineto
            -691 hlineto
            145 callsubr
            return
          </CharString>
          <CharString index="70">
            89 -14 -56 48 -119 hhcurveto
            -133 -111 -92 -25 -18 hvcurveto
            29 -78 rlineto
            9 17 8 6 24 hhcurveto
            21 13 -15 -41 9 hvcurveto
            129 -572 rlineto
            return
          </CharString>
          <CharString index="71">
            667 hlineto
            8 106 -174 30 return
          </CharString>
          <CharString index="72">
            -30 86 rlineto
            -1040 hlineto
            -64 -394 175 -22 143 270 442 18 -123 -98 -862 -1207 rlineto
            return
          </CharString>
          <CharString index="73">
            rmoveto
            756 hlineto
            65 297 -108 24 -59 -102 -458 -60 rlineto
            271 136 331 232 234 vvcurveto
            154 -102 92 -243 -178 -191 -103 -68 -55 vhcurveto
            80 -95 rlineto
            45 44 100 58 106 hhcurveto
            93 54 -48 -106 -229 -419 -272 -134 -77 hvcurveto
            endchar
          </CharString>
          <CharString index="74">
            155 35 248 46 320 vvcurveto
            178 -143 150 -353 -148 -238 -62 -5 -84 vhcurveto
            -21 -301 rlineto
            216 hlineto
            46 162 rlineto
            58 31 53 22 84 hhcurveto
            120 67 -60 -138 -260 -126 -101 -107 hvcurveto
            -122 -5 -14 -147 146 15 rlineto
            return
          </CharString>
          <CharString index="75">
            120 -73 rmoveto
            89 -59 126 186 rlineto
            -46 82 103 -26 125 hhcurveto
            565 225 460 453 212 -60 197 -144 120 hvcurveto
            139 197 -89 59 -136 -199 rlineto
            40 -78 -96 23 -116 hhcurveto
            -540 -250 -443 -462 -219 57 -187 130 -118 hvcurveto
            211 272 rmoveto
            -13 83 -4 92 89 vvcurveto
            388 134 381 248 84 58 -53 -97 35 vhcurveto
            -513 -1004 rmoveto
            543 889 rlineto
            13 -76 6 -92 -104 vvcurveto
            -430 -120 -349 -260 -93 -56 65 97 -33 vhcurveto
            return
          </CharString>
          <CharString index="76">
            hvcurveto
            -28 73 rlineto
            return
          </CharString>
          <CharString index="77">
            106 1280 -34 callgsubr
            return
          </CharString>
          <CharString index="78">
            -42 -499 -21 500 139 -109 -21 999 175 -24 -20 hstemhm
            816 346 hintmask 00000000
            hintmask 10101100
            387 -11 rmoveto
            hintmask 11010100
            -6 33 34 -3 34 hhcurveto
            406 268 330 420 61 callsubr
            hvcurveto
            hintmask 11001100
            10 84 rlineto
            hintmask 11010100
            -26 callsubr
            -304 -79 -306 -223 -44 -34 4 10 -28 hvcurveto
            endchar
          </CharString>
          <CharString index="79">
            -69 callgsubr
            -173 -137 -90 -157 -87 vhcurveto
            183 -20 -106 64 -146 hhcurveto
            -153 -127 -103 -133 -82 hvcurveto
            return
          </CharString>
          <CharString index="80">
            -95 callgsubr
            endchar
          </CharString>
          <CharString index="81">
            -52 24 -386 -52 -16 -89 107 -60 -200 -1482 rlineto
            318 hlineto
            92 653 rmoveto
            106 758 rlineto
            52 38 50 45 70 hhcurveto
            100 44 -121 -138 return
          </CharString>
          <CharString index="82">
            hintmask 00000000
            hintmask 11001100
            386 340 rmoveto
            110 106 41 45 98 hvcurveto
            -33 -252 rlineto
            -39 callsubr
            hintmask 11010100
            96 callgsubr
            hintmask 11100100
            60 479 rlineto
            hintmask 11001100
            9 callgsubr
            return
          </CharString>
          <CharString index="83">
            rmoveto
            -26 67 128 -47 144 hhcurveto
            431 235 328 381 322 -177 165 -325 -111 -224 -40 -10 -54 hvcurveto
            -32 -260 rlineto
            180 hlineto
            67 146 rlineto
            35 37 38 17 47 hhcurveto
            106 104 -75 -262 hvcurveto
            -14 -1 -14 -14 vvcurveto
            -479 hlineto
            34 -190 108 6 148 7 176 28 rlinecurve
            -263 -38 -118 -176 -137 hhcurveto
            -29 -23 14 23 -18 hvcurveto
            -44 56 -19 109 -35 76 rrcurveto
            -123 hlineto
            endchar
          </CharString>
          <CharString index="84">
            rmoveto
            182 198 101 213 149 -128 88 -175 -155 -231 -72 -235 -158 120 -86 189 hvcurveto
            22 143 rmoveto
            -67 -70 53 71 108 91 36 76 69 66 -52 -73 -115 -88 -28 -77 hvcurveto
            return
          </CharString>
          <CharString index="85">
            -21 -112 -25 -125 -56 vvcurveto
            return
          </CharString>
          <CharString index="86">
            68 55 rmoveto
            101 100 -78 210 hhcurveto
            541 280 383 529 388 -223 261 -380 -252 -143 -74 -5 -103 hvcurveto
            -70 -376 rlineto
            190 hlineto
            84 232 rlineto
            58 50 42 39 145 hhcurveto
            209 81 -241 -287 hvcurveto
            -10 -1 -9 -10 vvcurveto
            -592 27 34 -219 102 6 253 14 194 14 rlinecurve
            -372 -38 -154 -214 -193 hhcurveto
            -171 -41 58 41 -31 hvcurveto
            -83 201 rlineto
            -171 hlineto
            return
          </CharString>
          <CharString index="87">
            412 270 188 385 247 -175 129 -344 return
          </CharString>
          <CharString index="88">
            130 callgsubr
            101 callgsubr
            hintmask 00000000
            hintmask 10101000
            -37 hmoveto
            125 callsubr
            -117 -297 -463 -35 78 576 441 -29 37 231 -459 -46 43 callsubr
            -1118 hlineto
            hintmask 10011000
            114 callsubr
            hintmask 11001000
            1 callgsubr
            -160 -30 rlineto
            endchar
          </CharString>
          <CharString index="89">
            -8 hmoveto
            667 hlineto
            -17 callgsubr
            -14 -106 rlineto
            return
          </CharString>
          <CharString index="90">
            123 26 101 callsubr
            -502 hlineto
            114 callsubr
            return
          </CharString>
          <CharString index="91">
            rmoveto
            -373 165 -284 415 565 225 460 453 345 -157 304 -423 -540 -250 -443 -462 vhcurveto
            390 183 rmoveto
            321 33 129 277 211 hhcurveto
            165 61 -201 -336 hvcurveto
            -21 -1 -20 -20 vvcurveto
            -379 -718 rmoveto
            -195 -33 290 257 21 0 21 1 21 hvcurveto
            600 hlineto
            -349 -28 -120 -261 -225 hhcurveto
            endchar
          </CharString>
          <CharString index="92">
            -683 hlineto
            -12 -110 177 -26 return
          </CharString>
          <CharString index="93">
            0 136 1266 34 callsubr
            return
          </CharString>
          <CharString index="94">
            30 -21 callgsubr
            return
          </CharString>
          <CharString index="95">
            166 190 5 41 rlineto
            -63 7 -37 59 86 vvcurveto
            140 96 144 105 35 vhcurveto
            2 22 -66 106 rlineto
            -180 -74 -221 -174 -271 vvcurveto
            -146 59 -129 134 -36 vhcurveto
            return
          </CharString>
          <CharString index="96">
            126 57 195 117 74 31 -78 -123 -122 -58 -207 -115 return
          </CharString>
          <CharString index="97">
            222 hlineto
            36 370 rlineto
            return
          </CharString>
          <CharString index="98">
            264 178 231 219 172 -105 133 -212 -251 -182 -223 -212 return
          </CharString>
          <CharString index="99">
            134 -48 callgsubr
            -112 hlineto
            return
          </CharString>
          <CharString index="100">
            -6 callsubr
            endchar
          </CharString>
          <CharString index="101">
            rmoveto
            104 48 196 243 27 106 -164 114 rcurveline
            -266 -447 rlineto
            -381 -64 rmoveto
            101 50 204 238 26 105 -172 118 rcurveline
            -261 -447 rlineto
            return
          </CharString>
          <CharString index="102">
            81 602 rlineto
            7 37 56 3 22 hhcurveto
            149 95 -77 -157 6 hvcurveto
            -251 10 -119 -130 -188 hhcurveto
            return
          </CharString>
          <CharString index="103">
            vvcurveto
            -105 64 -69 129 145 118 71 83 81 vhcurveto
            -36 114 rlineto
            return
          </CharString>
          <CharString index="104">
            676 hlineto
            9 106 -174 30 47 359 190 190 72 -146 65 -204 52 -131 rlinecurve
            63 -158 19 -39 60 -7 rrcurveto
            434 hlineto
            12 106 -117 30 -47 25 -57 115 -95 189 rlinecurve
            -54 107 -111 257 -60 92 465 465 rcurveline
            127 -62 callsubr
            -501 hlineto
            -11 -109 rlineto
            return
          </CharString>
          <CharString index="105">
            -36 callsubr
            14 106 593 687 89 131 -123 -924 -138 -30 -11 -106 rlineto
            return
          </CharString>
          <CharString index="106">
            rmoveto
            268 16 165 415 74 212 42 154 14 -154 33 -268 rlineto
            return
          </CharString>
          <CharString index="107">
            vstem
            531 275 rmoveto
            219 hlineto
            28 241 3 55 5 54 2 55 rlinecurve
            112 -7 rlineto
            245 hlineto
            18 198 rlineto
            -225 hlineto
            -115 -10 29 164 26 230 rlineto
            -218 hlineto
            -27 -230 -13 -165 -138 11 rlineto
            -216 hlineto
            -18 -198 rlineto
            195 hlineto
            141 7 -26 -164 rlineto
            return
          </CharString>
          <CharString index="108">
            34 callgsubr
            -16 -20 return
          </CharString>
          <CharString index="109">
            -59 89 rlineto
            -49 -47 -56 -23 -60 hhcurveto
            -76 -70 111 207 283 112 177 93 hvcurveto
            95 -97 rlineto
            return
          </CharString>
          <CharString index="110">
            rmoveto
            -42 93 114 -15 84 hhcurveto
            334 184 151 185 169 -163 72 -146 -16 hvcurveto
            return
          </CharString>
          <CharString index="111">
            hlineto
            9 -90 -16 -200 -6 -90 rrcurveto
            return
          </CharString>
          <CharString index="112">
            -52 24 -451 -51 -21 -81 166 -51 rlineto
            return
          </CharString>
          <CharString index="113">
            -28 73 rlineto
            -34 -46 -26 -12 -20 hhcurveto
            -19 -29 10 67 8 hvcurveto
            128 927 102 callsubr
            -36 -267 -54 -274 -51 -110 rlinecurve
            -33 -16 -15 -18 -14 hhcurveto
            111 callgsubr
            hintmask 01110000
            -67 -285 rlineto
            -9 4 75 -15 23 hhcurveto
            endchar
          </CharString>
          <CharString index="114">
            170 -26 -186 -1250 -149 -30 rlineto
            return
          </CharString>
          <CharString index="115">
            -593 1 12 callgsubr
            return
          </CharString>
          <CharString index="116">
            183 -177 -21 526 121 281 183 -166 201 -170 170 9 -20 return
          </CharString>
          <CharString index="117">
            -49 16 callgsubr
            return
          </CharString>
          <CharString index="118">
            rmoveto
            38 40 47 42 62 -1 rrcurveto
            return
          </CharString>
          <CharString index="119">
            rmoveto
            -67 -73 53 225 41 hvcurveto
            23 197 rlineto
            27 49 53 callsubr
            hvcurveto
            endchar
          </CharString>
          <CharString index="120">
            17 callsubr
            hintmask 11001000
            159 callsubr
            hintmask 10101000
            22 callgsubr
          </CharString>
          <CharString index="121">
            -588 -395 rmoveto
            -71 -17 129 104 265 124 340 271 5 hvcurveto
            -104 -687 rlineto
            -79 -58 -75 -77 -70 hhcurveto
            endchar
          </CharString>
          <CharString index="122">
            198 -20 75 callsubr
            return
          </CharString>
          <CharString index="123">
            -88 callsubr
            endchar
          </CharString>
          <CharString index="124">
            rmoveto
            -14 callgsubr
            return
          </CharString>
          <CharString index="125">
            0 162 callsubr
            return
          </CharString>
          <CharString index="126">
            -42 callgsubr
            hstemhm
            return
          </CharString>
          <CharString index="127">
            174 869 140 return
          </CharString>
          <CharString index="128">
            310 142 310 return
          </CharString>
          <CharString index="129">
            154 -62 callsubr
            -15 callsubr
            return
          </CharString>
          <CharString index="130">
            hintmask 00000000
            hintmask 00110110
            38 callsubr
            -52 -366 rlineto
            hintmask 01010110
            -96 -13 88 -57 callsubr
            hintmask 10011010
            -28 73 rlineto
            -38 -53 -16 -8 -23 hhcurveto
            -30 -17 24 52 7 hvcurveto
            return
          </CharString>
          <CharString index="131">
            70 508 rlineto
            -326 hlineto
            -69 -508 rlineto
            -166 hlineto
            1 16 1 17 16 vvcurveto
            return
          </CharString>
          <CharString index="132">
            27 196 rlineto
            160 hlineto
            22 193 -156 -9 35 243 -211 -20 rlineto
            return
          </CharString>
          <CharString index="133">
            36 callsubr
            17 49 101 -33 rlineto
            return
          </CharString>
          <CharString index="134">
            rmoveto
            182 198 84 206 135 -138 68 -175 -155 -241 -54 -219 -151 140 -69 189 hvcurveto
            12 139 rmoveto
            -67 -80 39 65 92 101 22 76 69 76 -34 -61 -106 -98 -17 -77 hvcurveto
            endchar
          </CharString>
          <CharString index="135">
            hhcurveto
            112 41 -90 -95 -150 -37 -179 -166 return
          </CharString>
          <CharString index="136">
            22 673 198 hstem
            248 875 vstem
            248 673 rmoveto
            857 hlineto
            18 198 rlineto
            -857 hlineto
            endchar
          </CharString>
          <CharString index="137">
            11 callgsubr
            -24 -20 return
          </CharString>
          <CharString index="138">
            -23 28 39 -12 63 hhcurveto
            244 232 265 281 71 hvcurveto
            170 hlineto
            return
          </CharString>
          <CharString index="139">
            rlineto
            206 hlineto
            23 161 rlineto
            -208 hlineto
            33 261 rlineto
            return
          </CharString>
          <CharString index="140">
            346 -255 346 return
          </CharString>
          <CharString index="141">
            120 -110 110 return
          </CharString>
          <CharString index="142">
            -72 callgsubr
            endchar
          </CharString>
          <CharString index="143">
            -54 callsubr
            168 hlineto
            31 171 rlineto
            -175 hlineto
            20 150 86 callgsubr
            68 41 -30 -18 25 hvcurveto
            return
          </CharString>
          <CharString index="144">
            -30 -31 0 2 -17 hvcurveto
            -14 -117 rlineto
            -9 19 55 -6 28 hhcurveto
            385 return
          </CharString>
          <CharString index="145">
            127 callsubr
            70 509 rlineto
            341 hlineto
            return
          </CharString>
          <CharString index="146">
            363 vstem
            47 callsubr
            return
          </CharString>
          <CharString index="147">
            78 rmoveto
            58 2 44 -80 -88 vvcurveto
            -125 -92 -149 -110 -49 vhcurveto
            -3 -21 63 -89 rlineto
            236 104 158 189 224 vvcurveto
            122 -50 139 -163 38 vhcurveto
            -134 -153 rlineto
            return
          </CharString>
          <CharString index="148">
            125 43 121 93 169 vvcurveto
            151 -168 98 -282 vhcurveto
            -210 -52 -55 -132 hhcurveto
            return
          </CharString>
          <CharString index="149">
            rmoveto
            626 -388 100 152 -374 311 460 316 -58 175 -732 -406 rlineto
            return
          </CharString>
          <CharString index="150">
            73 534 339 -26 34 -224 rlineto
            -10 callsubr
            return
          </CharString>
          <CharString index="151">
            -44 -56 -42 -31 -55 hhcurveto
            -39 -28 15 57 return
          </CharString>
          <CharString index="152">
            368 hlineto
            63 -1 86 -4 44 -4 rrcurveto
            return
          </CharString>
          <CharString index="153">
            hstemhm
            117 335 return
          </CharString>
          <CharString index="154">
            48 435 rmoveto
            -299 11 152 -165 293 hhcurveto
            404 253 332 404 -13 hvcurveto
            299 -9 -157 159 -292 160 callsubr
            return
          </CharString>
          <CharString index="155">
            25 callgsubr
            -46 -455 -70 -324 -69 -142 rlinecurve
            -44 -21 -18 -24 -51 hhcurveto
            -89 -54 25 21 -33 hvcurveto
            endchar
          </CharString>
          <CharString index="156">
            -57 callgsubr
            endchar
          </CharString>
          <CharString index="157">
            -70 callsubr
            endchar
          </CharString>
          <CharString index="158">
            324 hlineto
            99 721 rlineto
            return
          </CharString>
          <CharString index="159">
            241 528 rmoveto
            203 hlineto
            258 1250 rlineto
            -335 hlineto
            -251 -1637 -65 callgsubr
            return
          </CharString>
          <CharString index="160">
            49 12 28 28 callsubr
            return
          </CharString>
          <CharString index="161">
            141 callgsubr
            192 105 105 82 68 hvcurveto
            4 hlineto
            -96 -16 64 -91 188 hhcurveto
            179 117 92 79 73 hvcurveto
            8 -8 rlineto
            return
          </CharString>
          <CharString index="162">
            502 1 -21 23 -21 1173 -20 28 -20 return
          </CharString>
          <CharString index="163">
            37 -42 callgsubr
            return
          </CharString>
          <CharString index="164">
            157 25 4 52 105 hhcurveto
            return
          </CharString>
          <CharString index="165">
            -21 965 198 return
          </CharString>
          <CharString index="166">
            105 callgsubr
            167 1262 rlineto
            476 hlineto
            -169 -1265 -141 -27 -14 -106 rlineto
            653 hlineto
            12 106 -157 30 return
          </CharString>
          <CharString index="167">
            -24 -23 -34 -28 -37 hhcurveto
            -26 -11 25 76 3 hvcurveto
            68 904 rlineto
            -429 hlineto
            -235 -602 -75 -200 -24 200 -88 602 rlineto
            -560 hlineto
            return
          </CharString>
          <CharString index="168">
            275 -118 158 -231 -125 -91 -50 -58 -62 return
          </CharString>
          <CharString index="169">
            326 126 326 return
          </CharString>
          <CharString index="170">
            81 -106 hhcurveto
            -123 return
          </CharString>
          <CharString index="171">
            7 callsubr
            endchar
          </CharString>
          <CharString index="172">
            187 -1 134 callgsubr
            return
          </CharString>
          <CharString index="173">
            32 -16 rmoveto
            134 53 63 81 53 hvcurveto
            73 112 return
          </CharString>
          <CharString index="174">
            -107 -23 129 1309 126 return
          </CharString>
          <CharString index="175">
            -303 -20 189 837 157 return
          </CharString>
          <CharString index="176">
            106 598 140 568 110 return
          </CharString>
          <CharString index="177">
            181 347 44 hvcurveto
            return
          </CharString>
          <CharString index="178">
            rlineto
            -86 -19 76 -63 142 hhcurveto
            175 97 114 30 24 -31 callsubr
            -34 -46 -23 -12 -23 hhcurveto
            -30 -13 27 49 8 hvcurveto
            return
          </CharString>
          <CharString index="179">
            -123 -56 152 -183 hhcurveto
            -151 -129 -114 -96 -32 hvcurveto
            return
          </CharString>
          <CharString index="180">
            238 -26 34 -438 rlineto
            181 hlineto
            75 584 rlineto
            -1016 hlineto
            return
          </CharString>
          <CharString index="181">
            82 callgsubr
            582 110 return
          </CharString>
          <CharString index="182">
            122 1316 124 return
          </CharString>
          <CharString index="183">
            -69 -53 -72 -59 -129 hhcurveto
            return
          </CharString>
          <CharString index="184">
            hintmask 00000000
            84 callsubr
            return
          </CharString>
          <CharString index="185">
            -68 -34 -74 -47 -69 -101 102 callgsubr
            return
          </CharString>
          <CharString index="186">
            -20 360 156 -132 156 hstemhm
            -253 return
          </CharString>
          <CharString index="187">
            137 1139 rlineto
            return
          </CharString>
          <CharString index="188">
            229 -204 248 return
          </CharString>
          <CharString index="189">
            -239 -16 123 424 117 161 297 -66 121 return
          </CharString>
          <CharString index="190">
            -100 -116 -86 -83 -41 hvcurveto
            endchar
          </CharString>
          <CharString index="191">
            hintmask 11101000
            -18 callsubr
            return
          </CharString>
          <CharString index="192">
            rlineto
            251 49 105 33 85 hhcurveto
            147 69 -122 -23 10 hvcurveto
            113 226 rlineto
            50 -68 -76 28 -174 hhcurveto
            return
          </CharString>
          <CharString index="193">
            -4 -16 rmoveto
            134 45 13 88 41 hvcurveto
            61 131 49 108 43 255 62 375 rcurveline
            51 -315 rlineto
            return
          </CharString>
          <CharString index="194">
            136 1250 45 callgsubr
            return
          </CharString>
          <CharString index="195">
            -38 0 148 1237 137 -86 86 return
          </CharString>
          <CharString index="196">
            rmoveto
            489 hlineto
            -28 -196 rlineto
            209 hlineto
            return
          </CharString>
          <CharString index="197">
            82 hmoveto
            323 hlineto
            102 742 rlineto
            return
          </CharString>
          <CharString index="198">
            -10 -23 243 1192 110 return
          </CharString>
          <CharString index="199">
            -9 callgsubr
            hintmask 10101000
            return
          </CharString>
          <CharString index="200">
            106 310 151 return
          </CharString>
          <CharString index="201">
            140 -9 -20 29 -20 382 68 callgsubr
            345 97 625 92 hintmask 0000000000000000
            return
          </CharString>
          <CharString index="202">
            -326 hlineto
            -92 callgsubr
            return
          </CharString>
          <CharString index="203">
            vstem
            -13 hmoveto
            -8 callgsubr
            return
          </CharString>
          <CharString index="204">
            -20 243 150 callgsubr
            136 97 625 92 hintmask 0000000000000000
            return
          </CharString>
          <CharString index="205">
            rmoveto
            -36 51 134 -51 190 hhcurveto
            327 282 122 271 139 -88 84 -155 7 hvcurveto
            return
          </CharString>
          <CharString index="206">
            -47 1 -21 360 184 615 23 callgsubr
            return
          </CharString>
          <CharString index="207">
            -75 25 -20 -53 vvcurveto
            return
          </CharString>
          <CharString index="208">
            11 -61 callsubr
            return
          </CharString>
          <CharString index="209">
            rlineto
            -992 hlineto
            -19 -138 244 -56 return
          </CharString>
          <CharString index="210">
            133 290 31 hvcurveto
            26 243 rlineto
            return
          </CharString>
          <CharString index="211">
            23 callgsubr
            46 callsubr
            return
          </CharString>
          <CharString index="212">
            -528 146 1521 -20 44 -20 return
          </CharString>
          <CharString index="213">
            -26 -168 -1250 return
          </CharString>
          <CharString index="214">
            69 550 rlineto
            return
          </CharString>
          <CharString index="215">
            162 -53 -15 -93 -87 -468 -65 -134 rlinecurve
            111 callgsubr
            -67 -295 rlineto
            return
          </CharString>
          <CharString index="216">
            -216 -26 140 450 120 305 179 return
          </CharString>
          <CharString index="217">
            -34 callgsubr
            hstemhm
            return
          </CharString>
          <CharString index="218">
            -168 -1266 return
          </CharString>
          <CharString index="219">
            -53 -47 -68 -46 -79 hhcurveto
            -65 -30 38 96 58 22 132 15 117 hvcurveto
            107 callsubr
            return
          </CharString>
          <CharString index="220">
            -250 -30 rlineto
            endchar
          </CharString>
          <CharString index="221">
            -11 -9 callgsubr
            return
          </CharString>
          <CharString index="222">
            rmoveto
            200 hlineto
            168 721 rlineto
            -287 hlineto
            return
          </CharString>
          <CharString index="223">
            rmoveto
            198 hlineto
            156 592 rlineto
            -275 hlineto
            return
          </CharString>
          <CharString index="224">
            191 292 180 return
          </CharString>
          <CharString index="225">
            201 -191 191 -138 138 -116 116 hstemhm
            -90 1750 return
          </CharString>
          <CharString index="226">
            162 26 9 -61 callsubr
            -663 hlineto
            -14 -109 139 -27 rlineto
            endchar
          </CharString>
          <CharString index="227">
            167 callsubr
            506 -20 28 -20 hstemhm
            return
          </CharString>
          <CharString index="228">
            145 138 callgsubr
            return
          </CharString>
          <CharString index="229">
            0 106 408 132 return
          </CharString>
          <CharString index="230">
            14 -61 callsubr
            return
          </CharString>
          <CharString index="231">
            44 callsubr
            63 84 78 110 74 hvcurveto
            return
          </CharString>
          <CharString index="232">
            1244 -10 callgsubr
            return
          </CharString>
          <CharString index="233">
            124 604 137 559 126 return
          </CharString>
          <CharString index="234">
            76 129 callgsubr
            return
          </CharString>
          <CharString index="235">
            120 450 return
          </CharString>
          <CharString index="236">
            553 hlineto
            11 106 -190 30 120 1146 78 -254 return
          </CharString>
          <CharString index="237">
            -20 179 -179 200 275 120 448 140 hstemhm
            return
          </CharString>
          <CharString index="238">
            -52 -16 -89 107 -60 rlineto
            endchar
          </CharString>
          <CharString index="239">
            48 444 hstemhm
            return
          </CharString>
          <CharString index="240">
            266 143 1304 hstem
            636 257 vstem
            636 return
          </CharString>
          <CharString index="241">
            99 rlineto
            260 hlineto
            28 191 rlineto
            -282 hlineto
            57 171 return
          </CharString>
          <CharString index="242">
            367 hmoveto
            219 hlineto
            947 1530 rlineto
            -219 hlineto
            return
          </CharString>
          <CharString index="243">
            180 -62 callsubr
            return
          </CharString>
          <CharString index="244">
            330 420 275 return
          </CharString>
          <CharString index="245">
            188 291 183 return
          </CharString>
          <CharString index="246">
            hstemhm
            157 344 return
          </CharString>
          <CharString index="247">
            -68 1 -21 25 -21 1033 138 hstemhm
            -70 1208 return
          </CharString>
          <CharString index="248">
            -29 callgsubr
            48 444 160 callgsubr
            return
          </CharString>
          <CharString index="249">
            159 685 163 hstem
            670 292 vstem
            164 return
          </CharString>
          <CharString index="250">
            hintmask 00000000
            hintmask 11010000
            return
          </CharString>
          <CharString index="251">
            -16 -9 callgsubr
            return
          </CharString>
          <CharString index="252">
            -14 -9 callgsubr
            return
          </CharString>
          <CharString index="253">
            49 13 70 10 39 3 50 342 rcurveline
            -140 1 return
          </CharString>
          <CharString index="254">
            114 645 139 273 -20 276 134 return
          </CharString>
          <CharString index="255">
            26 101 callsubr
            -682 hlineto
            -12 -110 176 return
          </CharString>
          <CharString index="256">
            309 197 332 197 hstem
            76 911 vstem
            return
          </CharString>
          <CharString index="257">
            -206 -23 117 398 190 379 112 return
          </CharString>
          <CharString index="258">
            -412 21 -21 1143 20 return
          </CharString>
          <CharString index="259">
            -166 -1267 -157 -30 return
          </CharString>
          <CharString index="260">
            hhcurveto
            257 158 return
          </CharString>
          <CharString index="261">
            170 -26 -181 -1258 -149 -30 rlineto
            return
          </CharString>
          <CharString index="262">
            162 callsubr
            hstemhm
            return
          </CharString>
          <CharString index="263">
            hstemhm
            118 1252 return
          </CharString>
          <CharString index="264">
            360 377 363 return
          </CharString>
          <CharString index="265">
            -27 -87 0 3 -35 hvcurveto
            return
          </CharString>
          <CharString index="266">
            850 1201 rlineto
            return
          </CharString>
          <CharString index="267">
            hhcurveto
            -404 -251 -326 -404 13 hvcurveto
            return
          </CharString>
          <CharString index="268">
            -20 hstem
            221 343 224 298 vstem
            return
          </CharString>
          <CharString index="269">
            33 callgsubr
            -24 -20 44 -20 return
          </CharString>
          <CharString index="270">
            136 -122 122 -110 110 hstemhm
            return
          </CharString>
          <CharString index="271">
            157 callsubr
            vstem
            return
          </CharString>
          <CharString index="272">
            21 -21 57 113 530 return
          </CharString>
          <CharString index="273">
            hintmask 00000000
            hintmask 11010100
            return
          </CharString>
          <CharString index="274">
            -21 509 140 return
          </CharString>
          <CharString index="275">
            -21 hstemhm
            65 381 return
          </CharString>
          <CharString index="276">
            -103 -793 rlineto
            return
          </CharString>
          <CharString index="277">
            hlineto
            -11 -110 return
          </CharString>
          <CharString index="278">
            -480 193 return
          </CharString>
          <CharString index="279">
            1238 432 hstem
            50 755 vstem
            return
          </CharString>
          <CharString index="280">
            222 -32 -20 -250 rlineto
            167 hlineto
            return
          </CharString>
          <CharString index="281">
            0 92 447 100 515 -20 29 -20 return
          </CharString>
          <CharString index="282">
            -9 16 callgsubr
            -9 -20 return
          </CharString>
          <CharString index="283">
            463 hintmask 00010100
            return
          </CharString>
          <CharString index="284">
            hmoveto
            333 hlineto
            return
          </CharString>
          <CharString index="285">
            -164 hhcurveto
            -89 return
          </CharString>
          <CharString index="286">
            -484 165 return
          </CharString>
        <CharString name=".notdef">
          608 0 219 hstem
          228 229 960 227 vstem
          228 hmoveto
          1416 1416 -1416 hlineto
          230 -1053 rmoveto
          358 342 -359 363 123 125 357 -368 352 366 128 -124 -363 -358 363 -368 -122 -122 -362 368 -347 -368 rlineto
          endchar
        </CharString>
        <CharString name=".null">
          -1264 endchar
        </CharString>
        <CharString name="A">
          -13 callgsubr
          hstem
          -161 1556 vstem
          -15 -102 callsubr
          endchar
        </CharString>
        <CharString name="AE">
          -38 callgsubr
        </CharString>
        <CharString name="AEacute">
          748 0 93 callsubr
          835 120 132 callsubr
          -206 2178 -789 176 callsubr
          1299 1570 -87 callgsubr
          hintmask 00000000
          -1224 -1536 rmoveto
          -157 -30 -8 -106 rlineto
          627 hlineto
          8 106 -190 30 147 280 rlineto
          474 hlineto
          -36 -280 -160 -30 -14 -106 rlineto
          125 callsubr
          rlineto
          hintmask 11101000
          -117 -297 -463 -35 78 576 439 -32 35 229 -455 -41 43 callsubr
          -1563 hlineto
          -15 -120 292 -26 rlineto
          -221 -809 rmoveto
          439 835 rlineto
          85 hlineto
          -109 -835 rlineto
          endchar
        </CharString>
        <CharString name="Aacute">
          -13 callgsubr
          68 444 106 callgsubr
          -672 463 hintmask 11101000
          -15 -102 callsubr
          hintmask 00010100
          38 1003 -43 callgsubr
        </CharString>
        <CharString name="Abreve">
          -13 callgsubr
          131 217 106 callgsubr
          -880 117 callsubr
          hintmask 11101000
          -15 -102 callsubr
          hintmask 00010110
          28 1066 50 callsubr
        </CharString>
        <CharString name="Acircumflex">
          -13 callgsubr
          176 -21 106 callgsubr
          -939 755 hintmask 11101000
          -15 -102 callsubr
          hintmask 00010100
          -238 1033 -84 callgsubr
        </CharString>
        <CharString name="Adieresis">
          -13 callgsubr
          180 -21 106 callgsubr
          -939 21 callsubr
          hintmask 11101000
          -15 -102 callsubr
          hintmask 00010110
          242 1094 -94 callgsubr
        </CharString>
        <CharString name="Agrave">
          -13 callgsubr
          68 444 106 callgsubr
          -912 463 hintmask 11101000
          -15 -102 callsubr
          hintmask 00010100
          29 1003 53 callgsubr
        </CharString>
        <CharString name="Amacron">
          -13 callgsubr
          205 209 106 callgsubr
          -854 591 hintmask 11101000
          -15 -102 callsubr
          hintmask 00010100
          -260 1140 -42 callsubr
          endchar
        </CharString>
        <CharString name="Aogonek">
          87 171 callsubr
          287 93 callsubr
          955 -20 hstemhm
          640 324 -281 304 hintmask 00000000
          hintmask 11110100
          -15 135 rmoveto
          -138 -29 -8 -106 rlineto
          558 hlineto
          8 106 -188 30 118 280 rlineto
          487 hlineto
          40 -281 -157 -29 -5 -106 rlineto
          239 hlineto
          78 callsubr
          hintmask 11111000
          124 callsubr
          231 hlineto
          6 106 -161 32 rlineto
          hintmask 11110100
          -247 1384 rlineto
          hintmask 11111000
          -347 hlineto
          -241 -955 rmoveto
          315 741 9 -191 78 -550 rlineto
          endchar
        </CharString>
        <CharString name="Aring">
          -13 callgsubr
          376 136 hstemhm
          476 194 32 482 -192 400 hintmask 00000000
          hintmask 11111010
          -15 135 rmoveto
          -138 -29 -8 -106 rlineto
          558 hlineto
          8 106 -188 30 118 280 rlineto
          487 hlineto
          40 -281 rlineto
          hintmask 11111100
          -157 -29 -5 -106 rlineto
          hintmask 11111010
          689 hlineto
          6 106 -161 32 -247 1384 rlineto
          -1 hlineto
          hintmask 11111100
          112 42 87 85 142 vvcurveto
          149 -138 74 -175 -155 -241 -58 -235 -106 63 -67 98 -33 vhcurveto
          hintmask 11111010
          180 115 rmoveto
          -67 -80 43 71 108 101 26 76 69 76 -42 -73 -115 -98 -18 -77 hvcurveto
          -418 -1063 rmoveto
          315 741 9 -191 78 -550 rlineto
          endchar
        </CharString>
        <CharString name="Atilde">
          -13 callgsubr
          106 212 -62 212 106 callgsubr
          -926 776 hintmask 11100100
          -15 -102 callsubr
          hintmask 00000000
          -255 1110 11 callsubr
          hintmask 00001010
          -43 callsubr
          hintmask 00010010
          4 callgsubr
          endchar
        </CharString>
        <CharString name="B">
          -62 callgsubr
        </CharString>
        <CharString name="C">
          57 callgsubr
          hstem
          60 391 vstem
          60 637 -99 callsubr
          endchar
        </CharString>
        <CharString name="CR">
          -1264 endchar
        </CharString>
        <CharString name="Cacute">
          57 callgsubr
          29 444 hstemhm
          60 391 382 463 hintmask 11010000
          60 637 -99 callsubr
          hintmask 00101000
          889 933 -43 callgsubr
        </CharString>
        <CharString name="Ccaron">
          57 callgsubr
          58 415 hstemhm
          60 391 177 755 hintmask 11010000
          60 637 -99 callsubr
          hintmask 00101000
          778 962 -11 callgsubr
        </CharString>
        <CharString name="Ccedilla">
          36 -482 165 323 -21 28 -21 1420 129 hstemhm
          60 391 205 200 hintmask 00000000
          hintmask 10111100
          395 -301 rmoveto
          -35 -153 rlineto
          -16 22 123 -12 53 hhcurveto
          81 callgsubr
          70 -16 99 -20 59 hvcurveto
          200 22 102 70 64 52 43 284 rcurveline
          -201 -1 -21 -76 -23 -83 -36 -41 rlinecurve
          -74 -76 -97 0 -44 hhcurveto
          -190 -81 175 337 -9 hvcurveto
          334 -9 132 421 318 hhcurveto
          35 32 -7 -11 28 hvcurveto
          40 -310 rlineto
          253 hlineto
          61 400 -33 9 rlineto
          17 -74 -62 31 -223 hhcurveto
          -537 -352 -333 -571 hvcurveto
          hintmask 11011100
          -343 158 -297 431 -12 vhcurveto
          5 -37 4 -48 -2 -52 rrcurveto
          -128 -6 -75 -37 -102 hhcurveto
          hintmask 10111100
          -31 -30 7 9 -17 hvcurveto
          endchar
        </CharString>
        <CharString name="Ccircumflex">
          57 callgsubr
          137 -21 hstemhm
          60 391 115 755 hintmask 11010000
          60 637 -99 callsubr
          hintmask 00101000
          613 963 -84 callgsubr
        </CharString>
        <CharString name="Cdotaccent">
          57 callgsubr
          71 363 hstemhm
          60 391 301 388 hintmask 00101000
          924 1612 -95 callgsubr
          hintmask 11010000
          -864 -975 -99 callsubr
          endchar
        </CharString>
        <CharString name="D">
          243 124 callgsubr
          hstemhm
          1120 377 hintmask 00000000
          hintmask 01010100
          -35 hmoveto
          45 callsubr
          hintmask 10010100
          -56 callsubr
          hintmask 10001100
          18 callgsubr
          hintmask 10010100
          114 callsubr
          hintmask 01100100
          19 callgsubr
          hintmask 10010100
          -65 callsubr
          endchar
        </CharString>
        <CharString name="Dcaron">
          250 124 callgsubr
          97 415 hstemhm
          599 755 -234 377 hintmask 00000110
          809 1599 -66 callgsubr
          hintmask 00000000
          -634 -1956 rmoveto
          45 callsubr
          hintmask 01010001
          -56 callsubr
          hintmask 10010001
          18 callgsubr
          hintmask 10001001
          114 callsubr
          hintmask 10010001
          19 callgsubr
          hintmask 01100001
          -65 callsubr
          endchar
        </CharString>
        <CharString name="Dcroat">
          252 -52 callgsubr
        </CharString>
        <CharString name="Delta">
          27 callgsubr
        </CharString>
        <CharString name="Deltagreek">
          27 callgsubr
        </CharString>
        <CharString name="E">
          41 -19 callsubr
        </CharString>
        <CharString name="Eacute">
          41 -14 callsubr
          48 444 101 callgsubr
          -555 176 callsubr
          846 1570 -87 callgsubr
          hintmask 00000000
          -767 -1672 -101 callgsubr
        </CharString>
        <CharString name="Ebreve">
          41 -14 callsubr
          111 217 101 callgsubr
          -763 117 callsubr
          hintmask 00010110
          836 1633 -70 callsubr
          hintmask 00000000
          -873 -1633 -101 callgsubr
        </CharString>
        <CharString name="Ecaron">
          41 -14 callsubr
          77 415 101 callgsubr
          -760 755 hintmask 00010100
          735 1599 -66 callgsubr
          hintmask 00000000
          -562 -1956 -101 callgsubr
        </CharString>
        <CharString name="Ecircumflex">
          41 130 callgsubr
          156 -21 101 callgsubr
          -822 755 hintmask 00000000
          hintmask 10100100
          -37 hmoveto
          125 callsubr
          -117 -297 -463 -35 78 576 441 -29 37 231 -459 -46 43 callsubr
          -1118 hlineto
          hintmask 10010100
          114 callsubr
          hintmask 11000100
          1 callgsubr
          -160 -30 rlineto
          hintmask 00001010
          593 1494 -84 callgsubr
        </CharString>
        <CharString name="Edieresis">
          41 -14 callsubr
          160 -21 101 callgsubr
          -822 21 callsubr
          hintmask 00010110
          1050 1661 -105 callgsubr
          hintmask 00000000
          -635 -1661 -101 callgsubr
        </CharString>
        <CharString name="Edotaccent">
          41 -14 callsubr
          90 363 101 callgsubr
          -636 388 hintmask 00010100
          821 1612 -95 callgsubr
          hintmask 00000000
          -858 -1612 -101 callgsubr
        </CharString>
        <CharString name="Egrave">
          41 -14 callsubr
          48 444 101 callgsubr
          -795 176 callsubr
          837 1570 -54 callgsubr
          hintmask 00000000
          -874 -1570 -101 callgsubr
        </CharString>
        <CharString name="Emacron">
          41 -14 callsubr
          185 209 101 callgsubr
          -737 591 hintmask 00010100
          548 62 callgsubr
          hintmask 00000000
          -605 -1916 -101 callgsubr
        </CharString>
        <CharString name="Eng">
          290 0 106 1288 110 callsubr
          -22 1667 132 callgsubr
          -22 hmoveto
          129 callsubr
          467 -1028 14 -201 -178 -142 -128 -24 rlinecurve
          48 -118 311 18 185 228 35 239 rlinecurve
          207 1394 -17 callsubr
          hintmask 11010000
          172 -26 -123 -1024 -71 250 rlineto
          hintmask 10110000
          -391 910 rlineto
          -557 hlineto
          144 callsubr
          hintmask 11010000
          154 callsubr
          endchar
        </CharString>
        <CharString name="Eogonek">
          61 171 callsubr
          287 87 callsubr
          hstemhm
          161 763 -280 641 166 callsubr
          -37 hmoveto
          937 hlineto
          hintmask 11010010
          78 callsubr
          hintmask 11010100
          124 callsubr
          88 -10 callgsubr
          -117 -297 -463 -35 78 576 441 -29 37 231 -459 -46 73 534 339 -26 34 -224 rlineto
          hintmask 11010010
          -10 callsubr
          hintmask 11010100
          -1118 hlineto
          hintmask 11001100
          114 callsubr
          hintmask 11100100
          1 callgsubr
          -160 -30 rlineto
          endchar
        </CharString>
        <CharString name="Eth">
          242 -52 callgsubr
        </CharString>
        <CharString name="Euro">
          124 -16 163 397 151 209 150 352 140 hstemhm
          38 1369 -1172 342 hintmask 00000000
          hintmask 11111000
          38 544 rmoveto
          201 hlineto
          -330 24 147 -230 334 hhcurveto
          139 71 35 25 78 hvcurveto
          146 callsubr
          -72 -188 rlineto
          -44 -40 -48 -34 -127 hhcurveto
          -134 -89 134 263 -13 hvcurveto
          390 hlineto
          13 151 rlineto
          hintmask 11110100
          -403 hlineto
          3 74 7 70 10 65 rrcurveto
          440 hlineto
          18 150 rlineto
          -427 hlineto
          219 61 110 133 148 hhcurveto
          121 67 -30 -48 52 hvcurveto
          20 -208 99 callgsubr
          23 -72 -86 31 -156 hhcurveto
          -296 -278 -153 -339 -120 hvcurveto
          -168 hlineto
          -19 -150 rlineto
          148 hlineto
          -13 -65 -8 -69 -2 -75 rrcurveto
          -180 hlineto
          endchar
        </CharString>
        <CharString name="F">
          -40 0 106 1280 163 callsubr
          -12 1315 hintmask 00000000
          hintmask 10101000
          -12 hmoveto
          770 hlineto
          8 106 -277 30 72 565 17 callgsubr
          hintmask 10011000
          145 callsubr
          hintmask 11001000
          1 callgsubr
          -138 -30 rlineto
          endchar
        </CharString>
        <CharString name="G">
          152 -16 30 callgsubr
          hstem
          60 373 vstem
          60 627 -68 callgsubr
        </CharString>
        <CharString name="Gbreve">
          165 -16 30 callgsubr
          92 217 hstemhm
          60 373 169 117 callsubr
          hintmask 00010110
          916 1633 -70 callsubr
          hintmask 11101000
          -856 -1006 -68 callgsubr
        </CharString>
        <CharString name="Gcaron">
          152 -16 30 callgsubr
          58 415 hstemhm
          60 373 172 755 hintmask 11101000
          60 627 -105 callsubr
          hintmask 00010100
          -378 336 -11 callgsubr
        </CharString>
        <CharString name="Gcircumflex">
          165 -16 30 callgsubr
          137 -21 hstemhm
          60 373 110 755 hintmask 11101000
          60 627 -105 callsubr
          hintmask 00010100
          -543 337 -84 callgsubr
        </CharString>
        <CharString name="Gcommaaccent">
          165 145 callgsubr
          21 30 callgsubr
          hstemhm
          60 373 192 256 hintmask 10000100
          569 -141 -96 callgsubr
          hintmask 01111000
          -663 664 -68 callgsubr
        </CharString>
        <CharString name="Gdotaccent">
          165 -16 30 callgsubr
          71 363 hstemhm
          60 373 296 388 hintmask 00010100
          901 1612 -95 callgsubr
          hintmask 11101000
          -841 -985 -68 callgsubr
        </CharString>
        <CharString name="Gtilde">
          152 -16 30 callgsubr
          67 71 callgsubr
          60 373 123 776 hintmask 11100100
          60 627 -105 callsubr
          hintmask 00000000
          -560 414 11 callsubr
          hintmask 00001010
          -43 callsubr
          hintmask 00010010
          4 callgsubr
          endchar
        </CharString>
        <CharString name="H">
          392 0 69 callsubr
          hstem
          -8 1737 vstem
          -55 callgsubr
          endchar
        </CharString>
        <CharString name="Hbar">
          392 0 106 517 140 219 140 298 110 hstem
          -6 1731 vstem
          -6 hmoveto
          -36 callsubr
          62 487 rlineto
          552 hlineto
          -62 -487 -191 -30 -14 -106 rlineto
          703 hlineto
          12 106 -157 30 107 846 rlineto
          181 hlineto
          14 140 rlineto
          -178 hlineto
          35 272 22 callsubr
          -35 -272 rlineto
          -552 hlineto
          35 272 -90 callgsubr
          -35 -272 rlineto
          -177 hlineto
          -14 -140 rlineto
          173 hlineto
          -107 -846 -138 -30 rlineto
          570 657 rmoveto
          28 219 rlineto
          552 hlineto
          -28 -219 rlineto
          endchar
        </CharString>
        <CharString name="Hcircumflex">
          392 0 69 callsubr
          156 -21 hstemhm
          -8 1737 -1105 755 hintmask 11101000
          -55 callgsubr
          hintmask 00010100
          728 1494 -84 callgsubr
        </CharString>
        <CharString name="I">
          110 callgsubr
          -18 864 vstem
          -18 hmoveto
          -103 callsubr
          endchar
        </CharString>
        <CharString name="I.uc">
          -59 callgsubr
        </CharString>
        <CharString name="IJ">
          251 -29 callgsubr
          160 callgsubr
          -267 1006 hintmask 11100000
          -18 hmoveto
          -103 callsubr
          hintmask 01010000
          904 -20 -78 callgsubr
          endchar
        </CharString>
        <CharString name="IJ_acutecomb">
          242 -29 callgsubr
          50 444 hstemhm
          579 261 338 463 hintmask 11010000
          556 1570 -87 callgsubr
          139 -1909 rmoveto
          52 -108 279 39 256 146 82 235 rlinecurve
          33 95 80 655 69 561 144 26 rcurveline
          101 callsubr
          -636 hlineto
          -15 178 callgsubr
          -27 -48 -435 -61 -474 -73 -390 rlinecurve
          -25 -131 -77 -125 -218 -67 rrcurveto
          -597 237 rmoveto
          -103 callsubr
          hintmask 00101000
          1299 1466 -43 callgsubr
        </CharString>
        <CharString name="Iacute">
          141 callsubr
          -406 463 hintmask 11010000
          -18 hmoveto
          -103 callsubr
          hintmask 00101000
          561 1464 -43 callgsubr
        </CharString>
        <CharString name="Ibreve">
          -29 callgsubr
          111 217 160 callgsubr
          -614 117 callsubr
          hintmask 11010000
          -18 hmoveto
          -103 callsubr
          hintmask 00101100
          551 1527 50 callsubr
        </CharString>
        <CharString name="Icircumflex">
          -29 callgsubr
          156 -21 160 callgsubr
          -673 755 hintmask 11010000
          -18 hmoveto
          -103 callsubr
          hintmask 00101000
          285 1494 -84 callgsubr
        </CharString>
        <CharString name="Idieresis">
          142 callgsubr
          -673 21 callsubr
          hintmask 11010000
          -18 hmoveto
          -103 callsubr
          hintmask 00101100
          765 1555 -94 callgsubr
        </CharString>
        <CharString name="Idotaccent">
          -59 callgsubr
        </CharString>
        <CharString name="Igrave">
          141 callsubr
          -646 463 hintmask 11010000
          -18 hmoveto
          -103 callsubr
          hintmask 00101000
          552 1464 53 callgsubr
        </CharString>
        <CharString name="Imacron">
          -29 callgsubr
          185 209 160 callgsubr
          -588 591 hintmask 11010000
          -18 hmoveto
          -103 callsubr
          hintmask 00101000
          263 1601 -42 callsubr
          endchar
        </CharString>
        <CharString name="Iogonek">
          171 callsubr
          287 106 -85 -21 1412 110 hstemhm
          169 79 220 372 hintmask 00000000
          hintmask 10111100
          -18 hmoveto
          241 hlineto
          78 callsubr
          124 callsubr
          223 hlineto
          hintmask 11011100
          7 106 -175 -13 callsubr
          172 -62 callsubr
          -671 hlineto
          -12 178 callgsubr
          138 callgsubr
          -150 -30 rlineto
          endchar
        </CharString>
        <CharString name="Itilde">
          -29 callgsubr
          86 71 callgsubr
          -18 864 -660 776 hintmask 11001000
          -18 hmoveto
          -103 callsubr
          hintmask 00000000
          268 1571 11 callsubr
          hintmask 00010100
          -43 callsubr
          hintmask 00100100
          4 callgsubr
          endchar
        </CharString>
        <CharString name="J">
          -525 1412 110 hstem
          -188 1006 vstem
          132 86 -78 callgsubr
          endchar
        </CharString>
        <CharString name="Jcircumflex">
          -536 1412 110 156 -21 hstemhm
          -188 1006 -673 755 hintmask 10100000
          132 86 -78 callgsubr
          hintmask 01010000
          120 1514 -84 callgsubr
        </CharString>
        <CharString name="K">
          222 19 callsubr
          -22 1588 132 callgsubr
          -22 hmoveto
          -3 callsubr
          hintmask 11010000
          135 -27 -623 -664 rlineto
          hintmask 10110000
          88 664 -90 callgsubr
          -165 -1250 -146 -30 rlineto
          endchar
        </CharString>
        <CharString name="Kcommaaccent">
          222 -558 523 35 -30 callsubr
          hstemhm
          -22 1588 -886 256 hintmask 10000100
          624 -139 -96 callgsubr
          hintmask 00000000
          -800 35 rmoveto
          -3 callsubr
          hintmask 01011000
          135 -27 -623 -664 rlineto
          hintmask 01101000
          88 664 -90 callgsubr
          -165 -1250 -146 -30 rlineto
          endchar
        </CharString>
        <CharString name="L">
          5 0 121 callgsubr
          hstem
          179 callgsubr
          vstem
          -13 hmoveto
          36 callgsubr
        </CharString>
        <CharString name="Lacute">
          5 0 121 callgsubr
          50 444 hstemhm
          179 callgsubr
          -745 463 hintmask 00101000
          610 1572 -87 callgsubr
          hintmask 11010000
          -507 -1674 35 callgsubr
        </CharString>
        <CharString name="Lcaron">
          5 0 139 866 645 -238 164 callgsubr
          -245 240 hintmask 10110000
          -13 hmoveto
          -77 callsubr
          hintmask 01001000
          960 929 -49 callgsubr
        </CharString>
        <CharString name="Lcommaaccent">
          5 -558 523 35 139 1273 164 callgsubr
          -792 256 hintmask 10001000
          391 -139 -96 callgsubr
          hintmask 01110000
          -558 35 35 callgsubr
        </CharString>
        <CharString name="Ldot">
          5 0 139 639 -21 655 164 callgsubr
          -295 339 hintmask 10110000
          -13 hmoveto
          -77 callsubr
          hintmask 01001000
          945 812 -55 callsubr
        </CharString>
        <CharString name="Lslash">
          5 2 121 callgsubr
          hstem
          179 callgsubr
          vstem
          -13 2 rmoveto
          1148 hlineto
          104 577 -181 23 -211 -451 -359 -20 73 557 359 142 -35 127 -305 -124 74 555 182 -62 callsubr
          -679 hlineto
          -13 -110 146 -26 -94 -706 -199 -81 36 -118 145 57 -53 -402 -138 -30 rlineto
          endchar
        </CharString>
        <CharString name="M">
          757 -51 callsubr
          714 hlineto
          8 106 -18 callgsubr
          hintmask 10011000
          61 callgsubr
        </CharString>
        <CharString name="N">
          290 19 callsubr
          -19 1672 132 callgsubr
          -19 hmoveto
          -79 callgsubr
          hintmask 11010000
          15 callgsubr
          hintmask 10110000
          8 callgsubr
          hintmask 11010000
          64 callsubr
        </CharString>
        <CharString name="NULL">
          -1264 endchar
        </CharString>
        <CharString name="Nacute">
          290 -42 callgsubr
          132 callsubr
          -19 1672 -819 176 callsubr
          950 1570 -87 callgsubr
          hintmask 00000000
          -853 -1672 rmoveto
          -79 callgsubr
          hintmask 10101000
          15 callgsubr
          hintmask 11001000
          8 callgsubr
          hintmask 10101000
          64 callsubr
        </CharString>
        <CharString name="Ncaron">
          290 -42 callgsubr
          77 415 hstemhm
          -19 1672 -1024 755 hintmask 00010100
          839 1599 -66 callgsubr
          hintmask 00000000
          -648 -1956 rmoveto
          -79 callgsubr
          hintmask 10101000
          15 callgsubr
          hintmask 11001000
          8 callgsubr
          hintmask 10101000
          64 callsubr
        </CharString>
        <CharString name="Ncommaaccent">
          290 145 callgsubr
          37 -30 callsubr
          hstemhm
          -19 1672 -1034 256 hintmask 10000100
          563 -141 -96 callgsubr
          hintmask 00000000
          -736 37 rmoveto
          -79 callgsubr
          hintmask 01011000
          15 callgsubr
          hintmask 01101000
          8 callgsubr
          hintmask 01011000
          64 callsubr
        </CharString>
        <CharString name="Ntilde">
          290 -42 callgsubr
          86 71 callgsubr
          -19 1672 -1073 776 hintmask 00000000
          hintmask 00001010
          657 1677 11 callsubr
          hintmask 00010010
          -43 callsubr
          hintmask 00001010
          4 callgsubr
          hintmask 00000000
          -599 -1801 rmoveto
          -79 callgsubr
          hintmask 10100100
          15 callgsubr
          hintmask 11000100
          8 callgsubr
          hintmask 10100100
          64 callsubr
        </CharString>
        <CharString name="O">
          15 callsubr
          hstem
          61 123 callgsubr
          vstem
          61 2 callgsubr
          endchar
        </CharString>
        <CharString name="OE">
          1042 -20 122 -102 136 1266 120 -104 124 hstemhm
          61 371 hintmask 00000000
          hintmask 10011000
          61 637 rmoveto
          -373 171 -284 419 224 160 71 114 112 vhcurveto
          hintmask 01101000
          -21 -165 rlineto
          1082 -10 callgsubr
          -117 -297 -464 -35 79 576 437 -36 40 235 -458 -43 43 callsubr
          -967 hlineto
          -25 -197 rlineto
          hintmask 10011000
          131 -75 -132 86 -226 hhcurveto
          -554 -246 -443 -462 hvcurveto
          619 -535 rmoveto
          -213 -35 290 257 388 141 381 261 179 67 -201 -336 -430 -126 -349 -274 hvcurveto
          endchar
        </CharString>
        <CharString name="Oacute">
          15 callsubr
          28 444 hstemhm
          65 381 314 463 -169 381 hintmask 00101000
          876 1570 -87 callgsubr
          hintmask 11010100
          -695 -1035 -97 callgsubr
        </CharString>
        <CharString name="Obreve">
          15 callsubr
          91 217 hstemhm
          65 381 106 117 callsubr
          -161 381 hintmask 00101100
          866 1633 -70 callsubr
          hintmask 11010010
          -801 -996 -97 callgsubr
        </CharString>
        <CharString name="Ocircumflex">
          15 callsubr
          136 168 callsubr
          47 755 -194 381 hintmask 11010100
          -41 callsubr
          hintmask 00101000
          -74 1498 -84 callgsubr
        </CharString>
        <CharString name="Odieresis">
          15 callsubr
          140 168 callsubr
          47 21 callsubr
          -201 381 hintmask 00101100
          1080 1661 -105 callgsubr
          hintmask 11010010
          -563 -1024 -97 callgsubr
        </CharString>
        <CharString name="Ograve">
          15 callsubr
          28 444 hstemhm
          65 381 74 463 71 381 hintmask 00101000
          867 1570 -54 callgsubr
          hintmask 11010100
          -802 -933 -97 callgsubr
        </CharString>
        <CharString name="Ohungarumlaut">
          15 callsubr
          124 168 callsubr
          32 932 -356 381 hintmask 11010100
          -41 callsubr
          hintmask 00101000
          393 1468 -37 callgsubr
        </CharString>
        <CharString name="Omacron">
          15 callsubr
          165 209 hstemhm
          65 381 132 591 -115 381 hintmask 00101000
          578 62 callgsubr
          hintmask 11010100
          -533 -1279 -97 callgsubr
        </CharString>
        <CharString name="Omega">
          -44 callgsubr
        </CharString>
        <CharString name="Omegagreek">
          -44 callgsubr
        </CharString>
        <CharString name="Oslash">
          198 -18 122 1316 120 callgsubr
          -32 callsubr
          endchar
        </CharString>
        <CharString name="Oslashacute">
          198 -18 75 callsubr
          26 444 hstemhm
          65 381 308 463 -163 381 hintmask 11010100
          -32 callsubr
          hintmask 00101000
          378 1304 -43 callgsubr
        </CharString>
        <CharString name="Otilde">
          15 callsubr
          66 71 callgsubr
          65 381 60 776 -228 381 hintmask 00000000
          hintmask 00010100
          583 1677 11 callsubr
          hintmask 00100100
          -43 callsubr
          hintmask 00010100
          4 callgsubr
          hintmask 11001010
          -441 -1164 -97 callgsubr
        </CharString>
        <CharString name="P">
          77 -40 callgsubr
        </CharString>
        <CharString name="Q">
          200 -439 258 160 122 -84 -21 1421 124 hstemhm
          62 381 180 195 233 381 hintmask 00000000
          hintmask 11011110
          62 636 rmoveto
          -373 165 -284 415 vhcurveto
          4 3 1 4 hhcurveto
          -267 -90 104 -152 343 hhcurveto
          203 133 71 40 52 hvcurveto
          -2 186 rlineto
          -27 -85 -143 -12 -61 hhcurveto
          hintmask 10111110
          -163 -128 16 161 2 hvcurveto
          436 86 178 407 403 vvcurveto
          345 -157 304 -423 vhcurveto
          hintmask 11011110
          -540 -250 -443 -462 hvcurveto
          609 -535 rmoveto
          -195 -33 290 257 388 134 381 248 165 61 -201 -336 -430 -120 -349 -260 hvcurveto
          endchar
        </CharString>
        <CharString name="R">
          65 callsubr
          hstemhm
          1016 368 166 callsubr
          -13 hmoveto
          -66 callsubr
          hintmask 11001100
          103 callgsubr
          hintmask 11010100
          -13 -9 callgsubr
          hintmask 11100100
          43 callgsubr
          hintmask 11010100
          -5 callsubr
          hintmask 11100100
          158 callsubr
          endchar
        </CharString>
        <CharString name="Racute">
          65 callsubr
          68 444 hstemhm
          788 463 -235 368 hintmask 00000000
          hintmask 11010001
          -13 hmoveto
          -66 callsubr
          hintmask 11001001
          103 callgsubr
          hintmask 11010001
          -13 -9 callgsubr
          hintmask 11100001
          43 callgsubr
          hintmask 11010001
          -5 callsubr
          hintmask 11100001
          158 callsubr
          hintmask 00000110
          334 770 -43 callgsubr
        </CharString>
        <CharString name="Rcaron">
          65 callsubr
          97 415 hstemhm
          583 755 -322 368 hintmask 00000110
          793 1599 -66 callgsubr
          hintmask 00000000
          -596 -1956 rmoveto
          -66 callsubr
          hintmask 11010001
          103 callgsubr
          hintmask 11001001
          -13 -9 callgsubr
          hintmask 11010001
          43 callgsubr
          hintmask 11100001
          -5 callsubr
          hintmask 11010001
          158 callsubr
          endchar
        </CharString>
        <CharString name="Rcommaaccent">
          187 145 callgsubr
          36 134 callgsubr
          hstemhm
          652 256 108 368 hintmask 10000010
          596 -141 -96 callgsubr
          hintmask 00000000
          -763 37 rmoveto
          -66 callsubr
          hintmask 01101001
          103 callgsubr
          hintmask 01100101
          -13 -9 callgsubr
          hintmask 01101001
          43 callgsubr
          hintmask 01110001
          -5 callsubr
          hintmask 01101001
          158 callsubr
          endchar
        </CharString>
        <CharString name="S">
          67 callsubr
          hstem
          165 317 267 328 vstem
          14 75 -31 callgsubr
        </CharString>
        <CharString name="Sacute">
          67 callsubr
          29 444 hstemhm
          165 317 131 463 -327 328 hintmask 11010100
          14 75 -104 callsubr
          hintmask 00101000
          529 1294 -43 callgsubr
        </CharString>
        <CharString name="Scaron">
          67 callsubr
          58 415 hstemhm
          165 317 -74 755 -414 328 hintmask 11010100
          14 75 -104 callsubr
          hintmask 00101000
          418 1323 -11 callgsubr
        </CharString>
        <CharString name="Scircumflex">
          67 callsubr
          137 -21 hstemhm
          165 317 -136 755 -352 328 hintmask 11010100
          14 75 -104 callsubr
          hintmask 00101000
          253 1324 -84 callgsubr
        </CharString>
        <CharString name="T">
          183 0 106 1296 120 hstem
          71 1469 vstem
          232 hmoveto
          889 hlineto
          10 106 -284 30 -75 callsubr
        </CharString>
        <CharString name="Tbar">
          187 0 106 574 150 572 120 hstem
          71 1469 vstem
          232 hmoveto
          889 hlineto
          10 106 -284 30 72 544 rlineto
          240 hlineto
          16 150 rlineto
          -236 hlineto
          77 572 240 -26 18 -439 181 2 85 583 rlineto
          -1370 hlineto
          -99 -585 rlineto
          188 hlineto
          165 439 239 26 -76 -572 rlineto
          -226 hlineto
          -16 -150 rlineto
          222 hlineto
          -72 -544 113 callsubr
        </CharString>
        <CharString name="Tcaron">
          187 0 106 1296 120 77 415 hstemhm
          71 1469 -963 755 hintmask 00101000
          787 1599 -66 callgsubr
          hintmask 11010000
          -345 -1956 rmoveto
          889 hlineto
          10 106 -284 30 -75 callsubr
        </CharString>
        <CharString name="Thorn">
          45 0 106 261 137 560 130 218 110 hstem
          969 370 vstem
          105 callgsubr
          31 234 rlineto
          -2 21 31 -1 59 hhcurveto
          599 113 281 218 -8 hvcurveto
          165 -6 -76 163 -416 hhcurveto
          -70 -70 -5 -4 -69 hvcurveto
          27 201 -87 callsubr
          538 398 rmoveto
          73 547 rlineto
          8 42 49 5 27 hhcurveto
          143 89 -76 -148 5 hvcurveto
          -238 9 -151 -98 -174 hhcurveto
          -44 -31 -1 1 -37 hvcurveto
          endchar
        </CharString>
        <CharString name="U">
          -25 callgsubr
          139 callsubr
          132 callgsubr
          157 428 -82 callgsubr
          hintmask 11010000
          -76 callgsubr
          hintmask 10110000
          -38 callsubr
          hintmask 11010000
          77 callgsubr
          hintmask 10110000
          -7 -59 0 -54 -52 vvcurveto
          endchar
        </CharString>
        <CharString name="Uacute">
          -25 callgsubr
          48 444 139 callsubr
          354 176 callsubr
          971 1570 -87 callgsubr
          hintmask 00000000
          -698 -1244 -95 callsubr
        </CharString>
        <CharString name="Ubreve">
          -25 callgsubr
          111 217 139 callsubr
          146 117 callsubr
          hintmask 00010110
          961 1633 -70 callsubr
          hintmask 00000000
          -804 -1205 -95 callsubr
        </CharString>
        <CharString name="Ucircumflex">
          -25 callgsubr
          156 -21 139 callsubr
          87 755 hintmask 00000000
          hintmask 10101000
          157 428 -82 callgsubr
          hintmask 11001000
          -76 callgsubr
          hintmask 10101000
          -38 callsubr
          hintmask 11001000
          77 callgsubr
          hintmask 10101000
          -7 -59 0 -54 -52 vvcurveto
          hintmask 00010100
          538 1172 -84 callgsubr
        </CharString>
        <CharString name="Udieresis">
          -25 callgsubr
          160 -21 139 callsubr
          87 21 callsubr
          hintmask 00010110
          1175 1661 -105 callgsubr
          hintmask 00000000
          -566 -1233 -95 callsubr
        </CharString>
        <CharString name="Ugrave">
          -25 callgsubr
          48 444 139 callsubr
          114 176 callsubr
          962 1570 -54 callgsubr
          hintmask 00000000
          -805 -1142 -95 callsubr
        </CharString>
        <CharString name="Uhungarumlaut">
          -25 callgsubr
          144 -21 139 callsubr
          72 932 hintmask 00000000
          hintmask 10101000
          157 428 -82 callgsubr
          hintmask 11001000
          -76 callgsubr
          hintmask 10101000
          -38 callsubr
          hintmask 11001000
          77 callgsubr
          hintmask 10101000
          -7 -59 0 -54 -52 vvcurveto
          hintmask 00010100
          1005 1142 -37 callgsubr
        </CharString>
        <CharString name="Umacron">
          -25 callgsubr
          185 209 139 callsubr
          172 591 hintmask 00010100
          673 62 callgsubr
          hintmask 00000000
          -536 -1488 -95 callsubr
        </CharString>
        <CharString name="Uogonek">
          201 171 callsubr
          267 124 1282 136 -109 109 hstemhm
          136 671 -650 344 25 296 hintmask 00000000
          hintmask 01010110
          157 428 rmoveto
          -249 150 -199 392 vhcurveto
          12 hlineto
          hintmask 11010010
          -53 -45 -53 -56 -44 -71 rrcurveto
          -22 -34 -13 -50 -30 vvcurveto
          -105 64 -69 129 145 124 71 83 75 vhcurveto
          -36 114 rlineto
          hintmask 11011000
          -44 -53 -45 -31 -55 hhcurveto
          -39 -28 25 57 62 61 83 78 75 hvcurveto
          217 71 130 188 45 353 97 759 rcurveline
          129 27 15 109 rlineto
          -465 hlineto
          -11 -109 rlineto
          hintmask 01100110
          -76 callgsubr
          hintmask 01010010
          101 763 198 27 10 109 rlineto
          hintmask 01011000
          -691 hlineto
          145 callsubr
          hintmask 01101000
          145 -26 rlineto
          hintmask 01010110
          169 callsubr
          -7 -59 0 -54 -52 vvcurveto
          endchar
        </CharString>
        <CharString name="Uring">
          -25 callgsubr
          -1 139 218 136 139 callsubr
          136 194 322 193 hintmask 00000000
          hintmask 10100100
          157 428 -82 callgsubr
          hintmask 11000100
          -76 callgsubr
          hintmask 10100100
          -38 callsubr
          hintmask 11000100
          77 callgsubr
          hintmask 10100100
          -7 -59 0 -54 -52 vvcurveto
          hintmask 00011011
          809 1093 27 callsubr
        </CharString>
        <CharString name="Utilde">
          -25 callgsubr
          86 71 callgsubr
          157 344 100 776 hintmask 00000000
          hintmask 00001010
          678 1677 11 callsubr
          hintmask 00010010
          -43 callsubr
          hintmask 00001010
          4 callgsubr
          hintmask 00000000
          -444 -1373 -82 callgsubr
          hintmask 10100100
          -76 callgsubr
          hintmask 11000100
          -38 callsubr
          hintmask 10100100
          77 callgsubr
          hintmask 11000100
          -7 -59 0 -54 -52 vvcurveto
          endchar
        </CharString>
        <CharString name="V">
          -19 11 -21 1396 110 callsubr
          -24 1492 132 callgsubr
          339 -10 rmoveto
          301 hlineto
          657 1396 153 26 18 -61 callsubr
          -538 hlineto
          -10 -9 callgsubr
          hintmask 11010000
          177 -26 -402 -876 -84 -208 -19 208 -110 876 rlineto
          hintmask 10110000
          119 callsubr
        </CharString>
        <CharString name="W">
          90 callgsubr
          hstem
          -23 2264 vstem
          322 -10 -80 callgsubr
        </CharString>
        <CharString name="Wacute">
          90 callgsubr
          132 callsubr
          -23 2264 -1194 463 hintmask 00101000
          1163 1570 -87 callgsubr
          hintmask 11010000
          -725 -1682 -80 callgsubr
        </CharString>
        <CharString name="Wcircumflex">
          90 callgsubr
          156 -21 hstemhm
          -23 2264 -1461 755 hintmask 11010000
          322 -10 -80 callsubr
          hintmask 00101000
          772 215 -84 callgsubr
        </CharString>
        <CharString name="Wdieresis">
          90 callgsubr
          154 callgsubr
          -23 2264 -1461 21 callsubr
          hintmask 00101100
          1367 1661 -105 callgsubr
          hintmask 11010000
          -593 -1671 -80 callgsubr
        </CharString>
        <CharString name="Wgrave">
          90 callgsubr
          132 callsubr
          -23 2264 -1434 463 hintmask 00101000
          1154 1570 -54 callgsubr
          hintmask 11010000
          -832 -1580 -80 callgsubr
        </CharString>
        <CharString name="X">
          -30 callgsubr
        </CharString>
        <CharString name="Y">
          37 -23 callgsubr
        </CharString>
        <CharString name="Yacute">
          56 callsubr
          48 444 167 callgsubr
          -755 463 -90 callsubr
          hintmask 00010100
          663 1464 -43 callgsubr
        </CharString>
        <CharString name="Ycircumflex">
          56 callsubr
          156 -21 167 callgsubr
          -1022 755 -90 callsubr
          hintmask 00010100
          387 1494 -84 callgsubr
        </CharString>
        <CharString name="Ydieresis">
          56 callsubr
          160 -21 167 callgsubr
          -1022 21 callsubr
          -90 callsubr
          hintmask 00010110
          867 1555 -94 callgsubr
        </CharString>
        <CharString name="Ygrave">
          56 callsubr
          48 444 167 callgsubr
          -995 463 -90 callsubr
          hintmask 00010100
          654 1464 53 callgsubr
        </CharString>
        <CharString name="Z">
          88 callsubr
          hstemhm
          -55 1359 143 callsubr
          -21 hmoveto
          -14 callgsubr
          hintmask 10110000
          159 callsubr
          hintmask 11010000
          22 callgsubr
        </CharString>
        <CharString name="Zacute">
          88 callsubr
          132 callsubr
          -55 1359 -627 463 hintmask 00000000
          hintmask 11001000
          -21 hmoveto
          -14 callgsubr
          hintmask 10101000
          159 callsubr
          hintmask 11001000
          -35 callsubr
          hintmask 00010100
          848 1481 -43 callgsubr
        </CharString>
        <CharString name="Zcaron">
          88 callsubr
          77 415 hstemhm
          -55 1359 -832 755 hintmask 00010100
          682 1599 -66 callgsubr
          hintmask 00000000
          -493 -1956 13 callsubr
        </CharString>
        <CharString name="Zdotaccent">
          88 callsubr
          90 363 hstemhm
          -55 1359 -708 388 hintmask 00010100
          768 1612 -95 callgsubr
          hintmask 00000000
          -789 -1612 13 callsubr
        </CharString>
        <CharString name="a">
          10 callsubr
          hstem
          60 346 vstem
          -107 callsubr
          endchar
        </CharString>
        <CharString name="aacute">
          10 callsubr
          68 512 128 callgsubr
          243 509 hintmask 11010000
          -107 callsubr
          hintmask 00101000
          198 1077 16 callsubr
        </CharString>
        <CharString name="abreve">
          10 callsubr
          137 217 128 callgsubr
          58 138 callsubr
          hintmask 11010000
          -107 callsubr
          hintmask 00101100
          222 1146 -83 callsubr
        </CharString>
        <CharString name="acircumflex">
          10 callsubr
          75 432 128 callgsubr
          -12 755 hintmask 11010000
          -107 callsubr
          hintmask 00101000
          -53 1085 35 callsubr
        </CharString>
        <CharString name="acute">
          -705 1231 512 hstem
          50 509 vstem
          153 1231 16 callsubr
        </CharString>
        <CharString name="acute.cap">
          -737 1570 444 hstem
          36 463 vstem
          152 1570 -43 callgsubr
        </CharString>
        <CharString name="adieresis">
          10 callsubr
          175 363 128 callgsubr
          -11 62 callsubr
          hintmask 11010000
          -107 callsubr
          hintmask 00101100
          436 1184 -70 callgsubr
        </CharString>
        <CharString name="ae">
          478 130 callsubr
          60 172 callgsubr
          373 -20 -73 callgsubr
          hintmask 01111100
          14 callsubr
        </CharString>
        <CharString name="aeacute">
          478 -20 179 296 120 448 140 68 512 128 callgsubr
          448 509 17 321 hintmask 00010100
          957 1231 -88 callsubr
          hintmask 00000000
          -481 -1332 -73 callgsubr
          hintmask 11101010
          14 callsubr
        </CharString>
        <CharString name="afii10017">
          -13 callgsubr
          hstem
          -158 1556 vstem
          -12 -102 callsubr
          endchar
        </CharString>
        <CharString name="afii10018">
          54 -18 124 -106 106 679 146 455 89 callgsubr
          897 177 callgsubr
          hintmask 10101010
          -8 hmoveto
          hintmask 01101010
          249 76 callgsubr
          hintmask 10101010
          -20 callsubr
          -77 -47 -12 -11 -41 hvcurveto
          67 494 355 -26 34 -221 rlineto
          188 hlineto
          35 367 rlineto
          -1083 hlineto
          hintmask 10100110
          -13 -9 callgsubr
          hintmask 10110010
          145 -26 -166 -1250 -140 -30 rlineto
          472 4 rmoveto
          88 662 rlineto
          9 27 52 4 39 hhcurveto
          131 87 -110 -149 -245 -111 -175 -205 -48 -34 1 3 -26 hvcurveto
          endchar
        </CharString>
        <CharString name="afii10019">
          -62 callgsubr
        </CharString>
        <CharString name="afii10020">
          -148 0 106 1280 89 callgsubr
          -8 1200 hintmask 00000000
          hintmask 10101000
          -8 hmoveto
          715 hlineto
          10 106 -223 29 170 1267 73 callsubr
          hintmask 10011000
          145 callsubr
          hintmask 11001000
          65 callgsubr
        </CharString>
        <CharString name="afii10021">
          181 0 136 1275 111 hstem
          -95 730 447 402 vstem
          -58 112 callgsubr
          884 4 callsubr
          -26 callgsubr
          -232 hlineto
          167 1250 150 -62 callsubr
          -1199 hlineto
          -13 -110 207 -27 -14 -116 -91 -744 -223 -321 -65 -68 rlinecurve
          210 hmoveto
          71 87 175 394 75 640 17 154 rcurveline
          338 hlineto
          -169 -1275 rlineto
          endchar
        </CharString>
        <CharString name="afii10022">
          61 -19 callsubr
        </CharString>
        <CharString name="afii10023">
          61 -14 callsubr
          160 -21 101 callgsubr
          -865 21 callsubr
          hintmask 00010110
          1007 1661 -105 callgsubr
          hintmask 00000000
          -592 -1661 -101 callgsubr
        </CharString>
        <CharString name="afii10024">
          875 74 callsubr
          hstem
          -59 2228 vstem
          -59 hmoveto
          -83 callgsubr
        </CharString>
        <CharString name="afii10025">
          0 -12 126 callsubr
          hstemhm
          789 407 -362 370 166 callgsubr
          117 callgsubr
          hintmask 11110000
          66 callgsubr
          hintmask 11101000
          -33 callsubr
          hintmask 11110000
          40 callgsubr
          endchar
        </CharString>
        <CharString name="afii10026">
          413 110 callgsubr
          -8 1784 vstem
          -8 hmoveto
          -16 callgsubr
        </CharString>
        <CharString name="afii10027">
          413 -29 callgsubr
          102 109 hstemhm
          -8 1784 -1209 312 hintmask 00000000
          hintmask 00101000
          965 1624 -96 callsubr
          hintmask 11010000
          -973 -1624 rmoveto
          -16 callgsubr
        </CharString>
        <CharString name="afii10028">
          187 74 callsubr
          hstem
          -13 1494 vstem
          -13 hmoveto
          -48 callsubr
          -675 hlineto
          -14 -110 145 -26 -166 -1250 -138 -30 rlineto
          endchar
        </CharString>
        <CharString name="afii10029">
          195 0 86 -86 106 -101 -21 37 -21 1403 119 hstemhm
          -23 1584 hintmask 00000000
          hintmask 00011100
          -23 19 rmoveto
          hintmask 00101100
          78 callgsubr
          hintmask 01001100
          152 callsubr
          -10 -106 rlineto
          702 hlineto
          hintmask 10001100
          9 86 -191 49 165 1251 48 callsubr
        </CharString>
        <CharString name="afii10030">
          753 -51 callsubr
          714 hlineto
          8 106 -18 callgsubr
          hintmask 10011000
          61 callgsubr
        </CharString>
        <CharString name="afii10031">
          392 0 69 callsubr
          hstem
          -8 1737 vstem
          -55 callgsubr
          endchar
        </CharString>
        <CharString name="afii10032">
          198 -20 122 1316 120 callgsubr
          -41 callsubr
          endchar
        </CharString>
        <CharString name="afii10033">
          314 0 106 1292 124 -110 110 hstemhm
          -8 1646 143 callsubr
          59 callsubr
          rlineto
          hintmask 10110000
          165 1251 144 25 rlineto
          hintmask 11010000
          9 -61 callsubr
          -1475 hlineto
          hintmask 10110000
          125 callgsubr
        </CharString>
        <CharString name="afii10034">
          79 -40 callgsubr
        </CharString>
        <CharString name="afii10035">
          57 callgsubr
          hstem
          60 391 vstem
          60 637 -99 callsubr
          endchar
        </CharString>
        <CharString name="afii10036">
          187 0 106 1296 120 hstem
          71 1469 vstem
          232 hmoveto
          889 hlineto
          10 106 -284 30 -75 callsubr
        </CharString>
        <CharString name="afii10037">
          91 callsubr
          hstem
          118 1252 vstem
          148 15 -84 callsubr
          endchar
        </CharString>
        <CharString name="afii10038">
          444 -75 106 1461 110 hstem
          49 337 985 336 vstem
          449 -75 rmoveto
          672 hlineto
          8 106 -168 30 16 127 rlineto
          532 52 198 281 363 vvcurveto
          244 -112 200 -465 37 vhcurveto
          13 101 168 -85 callsubr
          164 -26 -14 -104 rlineto
          -536 -50 -199 -282 -364 vvcurveto
          -255 113 -193 470 -34 vhcurveto
          -16 -123 -156 -30 rlineto
          186 263 rmoveto
          -209 58 -51 167 144 vvcurveto
          250 70 278 315 72 vhcurveto
          220 -970 rmoveto
          125 966 rlineto
          204 -59 51 -166 -142 vvcurveto
          -249 -69 -276 -311 -74 vhcurveto
          endchar
        </CharString>
        <CharString name="afii10039">
          -30 callgsubr
        </CharString>
        <CharString name="afii10040">
          397 147 callgsubr
          989 400 -167 444 hintmask 00000000
          hintmask 10101000
          -21 hmoveto
          1250 4 callsubr
          hintmask 01110000
          -26 callgsubr
          -209 hlineto
          164 1250 rlineto
          hintmask 10101000
          172 -62 callsubr
          hintmask 10110000
          -672 hlineto
          -11 178 callgsubr
          -26 -166 -1267 rlineto
          -467 hlineto
          160 1267 174 26 101 callsubr
          -671 hlineto
          -12 -110 146 -26 -164 -1250 -150 -30 rlineto
          endchar
        </CharString>
        <CharString name="afii10041">
          193 0 106 474 141 691 110 hstem
          144 366 vstem
          641 hmoveto
          703 hlineto
          12 106 -157 -13 callsubr
          154 26 12 110 rlineto
          -64 callsubr
          -191 -30 rlineto
          endchar
        </CharString>
        <CharString name="afii10042">
          1043 0 119 1293 110 hstem
          -8 2387 vstem
          -8 hmoveto
          2202 hlineto
          12 106 -157 -13 callsubr
          154 26 11 110 rlineto
          -6 callgsubr
        </CharString>
        <CharString name="afii10043">
          1051 147 callgsubr
          1691 454 -168 401 hintmask 00000000
          hintmask 10101000
          -8 hmoveto
          1992 4 callsubr
          hintmask 01110000
          -26 callgsubr
          -234 hlineto
          -21 callgsubr
          rlineto
          hintmask 10101000
          154 26 101 callsubr
          hintmask 10110000
          -6 callgsubr
        </CharString>
        <CharString name="afii10044">
          436 -18 124 -85 -21 785 146 463 128 -101 101 hstemhm
          1267 177 callgsubr
          hintmask 01110100
          332 hmoveto
          279 76 callgsubr
          hintmask 10101100
          -20 callsubr
          -78 -47 -12 -11 -41 hvcurveto
          63 478 175 35 rlineto
          hintmask 10110100
          10 101 rlineto
          -1026 hlineto
          -99 -585 rlineto
          188 hlineto
          168 449 236 16 -168 -1267 -49 callsubr
        </CharString>
        <CharString name="afii10045">
          119 callgsubr
          hstemhm
          914 366 -47 864 hintmask 01001001
          1233 hmoveto
          -103 callsubr
          hintmask 00000000
          -1267 -106 rmoveto
          279 76 callgsubr
          hintmask 00110110
          -20 callsubr
          -78 -47 -12 -11 -41 hvcurveto
          63 478 91 callgsubr
          hintmask 10010110
          -12 -9 callgsubr
          hintmask 10011010
          147 -26 -165 -1251 -49 callsubr
        </CharString>
        <CharString name="afii10046">
          83 -18 124 -85 -21 785 146 455 -34 callgsubr
          -101 101 hstemhm
          914 177 callgsubr
          hintmask 01100110
          -21 hmoveto
          279 76 callgsubr
          hintmask 10100110
          -20 callsubr
          -78 -47 -12 -11 -41 hvcurveto
          63 478 91 callgsubr
          hintmask 10101010
          -12 -9 callgsubr
          hintmask 10110010
          147 -26 -165 -1251 -49 callsubr
        </CharString>
        <CharString name="afii10047">
          56 -23 134 1301 126 hstem
          930 370 vstem
          -21 callsubr
          endchar
        </CharString>
        <CharString name="afii10048">
          973 -20 122 -102 106 588 140 578 110 -104 124 hstemhm
          836 123 callgsubr
          hintmask 00000000
          hintmask 01101110
          173 callgsubr
          73 558 rlineto
          271 hlineto
          -1 -19 0 -19 -19 vvcurveto
          hintmask 10101110
          -373 165 -284 415 565 225 460 453 345 -157 304 -423 -462 -250 -325 -383 -62 vhcurveto
          -267 hlineto
          hintmask 10110110
          73 552 172 -62 callsubr
          -671 hlineto
          -12 178 callgsubr
          138 callgsubr
          -150 -30 rlineto
          1226 543 rmoveto
          hintmask 10101110
          388 134 381 248 165 61 -201 -336 -430 -120 -349 -260 vhcurveto
          hintmask 10110110
          -195 -33 290 257 hvcurveto
          endchar
        </CharString>
        <CharString name="afii10049">
          224 0 86 -86 106 569 111 626 126 -16 -20 hstemhm
          186 403 hintmask 00000000
          hintmask 01110100
          -102 hmoveto
          446 hlineto
          100 166 548 123 150 hvcurveto
          62 1 37 1 45 -1 42 3 rlinecurve
          -71 -539 -156 -30 -9 -106 rlineto
          665 hlineto
          10 106 -155 30 164 1250 162 26 rlineto
          hintmask 01101100
          13 -61 callsubr
          -345 hlineto
          -191 2 16 -190 hhcurveto
          hintmask 10110100
          -436 -223 -200 -302 -148 81 -137 183 -55 hvcurveto
          -165 -96 -196 -459 -106 -25 -74 -30 rcurveline
          910 700 rmoveto
          -137 -93 82 180 210 88 154 194 115 22 -13 -2 33 hvcurveto
          -79 -605 rlineto
          -5 -39 -57 -1 -47 hhcurveto
          endchar
        </CharString>
        <CharString name="afii10050">
          -264 19 callsubr
          -8 1173 143 callsubr
          -8 hmoveto
          775 hlineto
          10 106 -283 30 166 1250 420 -38 85 533 rlineto
          -193 hlineto
          -120 -359 rlineto
          -676 hlineto
          hintmask 10110000
          145 callsubr
          hintmask 11010000
          65 callgsubr
        </CharString>
        <CharString name="afii10051">
          480 -5 120 -115 106 605 160 531 120 hstemhm
          1366 328 hintmask 00000000
          hintmask 01111000
          232 hmoveto
          759 hlineto
          10 106 -154 30 68 511 rlineto
          24 46 73 40 73 hhcurveto
          198 61 -90 -186 hvcurveto
          hintmask 10111000
          -115 -29 -174 -79 -31 vhcurveto
          -24 -9 -54 -2 -16 2 rrcurveto
          hintmask 01111000
          -9 -105 rlineto
          hintmask 10111000
          -4 16 28 -2 28 hhcurveto
          288 179 304 211 139 -56 222 -334 -181 -113 -53 -37 -77 hvcurveto
          83 621 356 155 callgsubr
          -1486 97 callgsubr
        </CharString>
        <CharString name="afii10052">
          -148 0 106 1296 34 callsubr
          132 callsubr
          -8 1200 -706 176 callsubr
          602 1570 -87 callgsubr
          hintmask 00000000
          -494 -1672 rmoveto
          715 hlineto
          10 106 -223 29 170 1267 73 callsubr
          hintmask 11001000
          -14 92 callsubr
          65 callgsubr
        </CharString>
        <CharString name="afii10053">
          57 callgsubr
          hstem
          60 390 vstem
          60 637 rmoveto
          -350 165 -303 452 171 callgsubr
          89 63 77 vhcurveto
          43 284 -201 -1 -21 -76 -23 -83 -36 -41 rlinecurve
          -74 -76 -97 0 -44 hhcurveto
          -190 -81 175 337 -9 hvcurveto
          -1 13 0 14 14 vvcurveto
          196 -14 262 -15 105 -6 34 219 rcurveline
          -585 -26 rlineto
          281 38 135 275 257 hhcurveto
          35 32 -7 -11 28 hvcurveto
          40 -310 rlineto
          253 hlineto
          61 400 -33 9 rlineto
          17 -74 -62 31 -223 hhcurveto
          -537 -352 -333 -571 hvcurveto
          endchar
        </CharString>
        <CharString name="afii10054">
          67 callsubr
          hstem
          165 317 267 328 vstem
          14 75 -31 callgsubr
        </CharString>
        <CharString name="afii10055">
          110 callgsubr
          -18 864 vstem
          -18 hmoveto
          -103 callsubr
          endchar
        </CharString>
        <CharString name="afii10057">
          -525 1412 110 hstem
          -188 1006 vstem
          132 86 -78 callgsubr
          endchar
        </CharString>
        <CharString name="afii10058">
          785 -18 124 -122 265 -249 106 679 146 472 119 hstemhm
          1616 177 callgsubr
          hintmask 10011100
          95 callgsubr
          152 callsubr
          rlineto
          hintmask 00111100
          -10 -106 rlineto
          290 hlineto
          hintmask 10011100
          -1 89 193 -17 45 hhcurveto
          -20 callsubr
          -73 -45 -11 -10 -40 hvcurveto
          63 476 25 callgsubr
          rlineto
          hintmask 01011100
          131 callgsubr
          hintmask 10011100
          1192 -195 rmoveto
          87 665 rlineto
          7 28 48 4 35 hhcurveto
          131 87 -110 -149 -245 -111 -175 -205 -43 -32 1 2 -25 hvcurveto
          endchar
        </CharString>
        <CharString name="afii10059">
          990 -18 124 -106 106 598 140 -59 146 481 110 hstemhm
          1821 177 callgsubr
          hintmask 10101100
          -8 hmoveto
          hintmask 01101100
          667 hlineto
          hintmask 10101100
          -17 callgsubr
          rlineto
          hintmask 01101100
          -14 -106 rlineto
          325 76 callgsubr
          hintmask 10011100
          -20 callsubr
          -80 -47 -13 -11 -41 hvcurveto
          63 479 22 callsubr
          rlineto
          hintmask 10101100
          -53 callgsubr
          1392 4 rmoveto
          hintmask 10011100
          87 662 rlineto
          2 hlineto
          9 26 54 4 39 hhcurveto
          131 87 -110 -149 -245 -111 -175 -205 hvcurveto
          hintmask 10101100
          -49 -35 2 2 -26 hvcurveto
          endchar
        </CharString>
        <CharString name="afii10060">
          626 -1 110 -109 106 694 141 461 120 hstemhm
          1378 356 hintmask 00000000
          hintmask 01111000
          232 hmoveto
          789 hlineto
          10 106 -184 30 84 628 rlineto
          27 68 109 9 76 hhcurveto
          208 13 -106 -357 -55 hvcurveto
          hintmask 10111000
          -31 -202 -150 -26 -12 -9 callgsubr
          655 148 callgsubr
          51 -186 58 -316 hhcurveto
          -99 -135 -23 -41 -95 hvcurveto
          70 525 246 155 callgsubr
          -1376 97 callgsubr
        </CharString>
        <CharString name="afii10061">
          187 74 callsubr
          102 109 hstemhm
          -13 1494 -985 312 hintmask 00000000
          hintmask 00010100
          894 1624 -96 callsubr
          hintmask 11101000
          -907 -1624 rmoveto
          -48 callsubr
          -675 hlineto
          -14 -110 145 -26 -166 -1250 -138 -30 rlineto
          endchar
        </CharString>
        <CharString name="afii10062">
          91 callsubr
          102 109 156 callsubr
          -884 312 hintmask 00000000
          hintmask 00101000
          884 1624 -96 callsubr
          hintmask 11010000
          -736 -1609 -84 callsubr
          endchar
        </CharString>
        <CharString name="afii10065">
          10 callsubr
          hstem
          60 346 vstem
          -107 callsubr
          endchar
        </CharString>
        <CharString name="afii10066">
          -97 -16 123 828 171 290 218 hstem
          56 314 451 322 vstem
          517 -16 rmoveto
          367 259 308 408 227 -81 179 -296 -254 -174 -171 -195 -69 hvcurveto
          499 65 355 157 326 hhcurveto
          63 13 16 57 7 hvcurveto
          50 296 rlineto
          -152 hlineto
          -50 -98 rlineto
          -30 -18 -34 -23 -28 hhcurveto
          -237 -573 -305 -776 -310 144 -239 317 hvcurveto
          37 123 rmoveto
          -94 -83 123 233 -7 hvcurveto
          243 -8 144 229 160 hhcurveto
          78 71 -54 -231 6 hvcurveto
          -251 7 -95 -292 -179 hhcurveto
          endchar
        </CharString>
        <CharString name="afii10067">
          -117 -19 117 932 120 hstemhm
          47 325 367 335 -334 318 hintmask 00000000
          hintmask 11110000
          47 450 rmoveto
          -303 166 -166 267 376 218 217 230 116 -71 110 -209 -1 vhcurveto
          hintmask 11101000
          213 72 51 113 111 vvcurveto
          99 -89 102 -242 vhcurveto
          hintmask 11110000
          -282 -398 -209 -491 hvcurveto
          353 199 rmoveto
          283 14 158 98 72 hhcurveto
          hintmask 11101000
          70 26 -48 -77 -136 -91 -62 -165 -34 hvcurveto
          -112 -288 rmoveto
          41 -4 73 9 46 vhcurveto
          168 30 rlineto
          2 20 18 2 17 hhcurveto
          hintmask 11110000
          105 34 -93 -113 -169 -112 -106 -100 hvcurveto
          hintmask 11101000
          -101 -54 108 179 hvcurveto
          endchar
        </CharString>
        <CharString name="afii10068">
          -354 -20 178 826 179 hstem
          -2 342 202 354 vstem
          -2 235 rmoveto
          -142 133 -113 238 145 175 54 81 83 vhcurveto
          -31 135 rlineto
          -52 -74 -70 -40 -111 hhcurveto
          -35 callgsubr
        </CharString>
        <CharString name="afii10069">
          -117 -16 122 875 125 430 146 hstem
          44 347 419 335 vstem
          44 449 rmoveto
          -291 176 -174 249 526 150 651 416 362 -137 269 -391 -100 -158 -35 -91 -107 vhcurveto
          79 -92 rlineto
          61 91 72 11 62 hhcurveto
          179 69 -113 -348 6 hvcurveto
          19 -38 -47 12 -57 hhcurveto
          -424 -200 -326 -331 hvcurveto
          469 -343 rmoveto
          -64 -58 67 282 266 87 260 193 56 45 -9 -23 38 hvcurveto
          -385 -7 -73 -458 -217 hhcurveto
          endchar
        </CharString>
        <CharString name="afii10070">
          -36 callgsubr
          hstem
          61 359 298 321 vstem
          61 430 -93 callgsubr
        </CharString>
        <CharString name="afii10071">
          -36 callgsubr
          173 363 144 callgsubr
          -139 326 111 321 -306 326 hintmask 00010101
          876 1338 -106 callgsubr
          hintmask 11101010
          -363 -908 -93 callgsubr
        </CharString>
        <CharString name="afii10072">
          773 -20 170 -170 201 -166 9 callsubr
          hstemhm
          394 307 629 307 hintmask 0000000000000000
          hintmask 0010101001100000
          1 15 rmoveto
          hintmask 0100101001100000
          31 callsubr
          hintmask 0001101001100000
          26 callgsubr
          hintmask 0100101001100000
          73 callgsubr
          hintmask 0010100101100000
          2 callsubr
          hintmask 0100110001100000
          93 232 rlineto
          hintmask 0100101001100000
          31 callgsubr
          hintmask 0100100011100000
          24 callsubr
          hintmask 0100101001100000
          44 callgsubr
          hintmask 1000110001100000
          -2 callgsubr
        </CharString>
        <CharString name="afii10073">
          82 callsubr
          hstemhm
          647 333 -315 318 hintmask 00000000
          hintmask 10011000
          -4 71 98 callsubr
          hintmask 10010100
          41 callsubr
          hintmask 10101000
          -36 -297 rlineto
          180 hlineto
          hintmask 11010100
          14 callgsubr
          hintmask 11011000
          49 callgsubr
        </CharString>
        <CharString name="afii10074">
          -61 callgsubr
          hstemhm
          117 335 hintmask 00000000
          hintmask 10001100
          117 235 -98 callsubr
          hintmask 01010100
          -85 callgsubr
          hintmask 10100100
          -94 callsubr
          hintmask 10001100
          -93 callsubr
          endchar
        </CharString>
        <CharString name="afii10075">
          -61 callgsubr
          103 109 46 callsubr
          -145 283 -101 callsubr
          564 1011 -86 callgsubr
          endchar
        </CharString>
        <CharString name="afii10076">
          -106 174 callsubr
          hstemhm
          781 360 hintmask 00000000
          hintmask 11011000
          169 callgsubr
          73 539 rlineto
          7 3 callgsubr
          hintmask 11101000
          -12 callgsubr
          68 494 rlineto
          hintmask 11011000
          -65 30 -46 callgsubr
          endchar
        </CharString>
        <CharString name="afii10077">
          140 callsubr
          hintmask 00000000
          hintmask 01110000
          66 callsubr
          128 777 0 vvcurveto
          282 hlineto
          -110 -852 rlineto
          hintmask 10110000
          -123 -16 77 -62 132 hhcurveto
          132 126 83 61 42 hvcurveto
          6 callsubr
        </CharString>
        <CharString name="afii10078">
          407 0 -21 26 -21 22 -21 969 118 callsubr
          hintmask 00000000
          hintmask 01010001
          86 callsubr
          hintmask 00100011
          109 callgsubr
          hintmask 10000011
          -97 2 61 -35 80 hhcurveto
          174 156 106 25 15 hvcurveto
          -36 92 rlineto
          60 callsubr
          hintmask 00100101
          -15 -138 rlineto
          hintmask 01001001
          108 callsubr
          hintmask 01010001
          -9 4 59 -15 23 hhcurveto
          endchar
        </CharString>
        <CharString name="afii10079">
          51 -20 171 -150 -21 41 120 callsubr
          76 1181 23 callsubr
          128 928 rlineto
          -326 hlineto
          -70 -506 rlineto
          -340 hlineto
          hintmask 00110110
          67 483 -66 31 -46 callgsubr
          endchar
        </CharString>
        <CharString name="afii10080">
          -72 58 callgsubr
          hstem
          48 360 377 363 vstem
          -52 callsubr
          endchar
        </CharString>
        <CharString name="afii10081">
          40 0 155 callsubr
          736 33 callsubr
          hintmask 00000000
          hintmask 01001010
          83 hmoveto
          51 callsubr
          hintmask 01100010
          132 62 101 112 79 -75 callgsubr
          hintmask 10001100
          -22 callsubr
          -77 23 -94 -97 callsubr
          hintmask 01001010
          -69 callgsubr
          -158 -129 -94 -140 -88 vhcurveto
          hintmask 01010010
          16 210 rlineto
          hintmask 01001010
          75 callgsubr
          endchar
        </CharString>
        <CharString name="afii10082">
          -29 callsubr
        </CharString>
        <CharString name="afii10083">
          68 callsubr
          hstem
          59 341 vstem
          447 -20 -82 callsubr
        </CharString>
        <CharString name="afii10084">
          -63 callsubr
        </CharString>
        <CharString name="afii10085">
          -180 29 callgsubr
          hstem
          752 341 vstem
          2 -107 callgsubr
          endchar
        </CharString>
        <CharString name="afii10086">
          492 -499 -21 500 130 -101 -21 1045 130 -13 -20 395 -20 hstemhm
          60 341 199 589 -461 196 431 341 hintmask 0000000000000000
          hintmask 1101011011000000
          404 -20 rmoveto
          hintmask 1101011101000000
          115 84 36 41 57 hvcurveto
          -57 -406 -3 -21 -15 vvcurveto
          -98 2 89 -37 108 hhcurveto
          164 94 115 29 22 -31 callsubr
          hintmask 1011011011000000
          -39 -52 -19 -7 -21 hhcurveto
          -32 -10 29 47 7 hvcurveto
          36 261 rlineto
          hintmask 1101011101000000
          -5 24 25 -3 30 hhcurveto
          449 208 372 389 230 -94 192 -250 -103 -77 -29 -35 -56 hvcurveto
          73 524 -50 27 rlineto
          -1 hlineto
          hintmask 1100111011000000
          -390 107 callgsubr
          -17 -119 -15 -109 -14 -104 rlinecurve
          hintmask 1101011011000000
          8 -28 -32 5 -37 hhcurveto
          -449 -208 93 callgsubr
          94 -192 250 hvcurveto
          141 164 rmoveto
          -91 -53 105 164 267 65 353 227 37 34 -5 -12 31 hvcurveto
          -49 -352 -37 -264 -28 -195 rrcurveto
          -32 -32 -47 -29 -57 hhcurveto
          434 -24 rmoveto
          117 837 rlineto
          24 30 39 18 46 hhcurveto
          91 53 -105 -164 -267 -65 -353 -227 -30 -28 3 7 -26 hvcurveto
          endchar
        </CharString>
        <CharString name="afii10087">
          -33 callgsubr
        </CharString>
        <CharString name="afii10088">
          17 -20 168 -142 -21 1154 104 callsubr
          299 81 callsubr
          hintmask 00000000
          hintmask 01001101
          117 235 rmoveto
          hintmask 10001101
          -193 3 169 -62 120 hhcurveto
          176 103 88 78 68 hvcurveto
          4 -3 rlineto
          hintmask 01001110
          -14 -81 38 -60 98 -17 rrcurveto
          -74 -33 -57 -45 -73 vvcurveto
          hintmask 01001101
          -60 callsubr
          hintmask 10010110
          84 callgsubr
          48 50 35 40 21 vhcurveto
          85 34 54 62 14 23 -28 73 rcurveline
          -38 -53 -16 -8 -23 hhcurveto
          -30 -17 24 52 7 hvcurveto
          128 928 rlineto
          95 callsubr
          hintmask 01100101
          107 callsubr
          hintmask 01001101
          -93 callsubr
          endchar
        </CharString>
        <CharString name="afii10089">
          99 callsubr
          hstemhm
          109 325 -25 callsubr
          endchar
        </CharString>
        <CharString name="afii10090">
          648 -20 168 991 104 callsubr
          hintmask 00000000
          hintmask 10011000
          54 callsubr
          -96 -16 56 -57 callsubr
          -28 73 rlineto
          -38 -53 -16 -8 -23 hhcurveto
          -30 -17 24 52 7 hvcurveto
          hintmask 10101000
          128 928 rlineto
          -326 hlineto
          -123 -899 rlineto
          -56 -47 -71 -52 -83 hhcurveto
          -65 -30 38 96 22 11 88 16 118 hvcurveto
          25 189 37 266 25 190 rrcurveto
          95 callsubr
          hintmask 11001000
          107 callsubr
          hintmask 10011000
          -93 callsubr
          endchar
        </CharString>
        <CharString name="afii10091">
          648 -20 168 -142 -21 1154 104 callsubr
          932 81 callsubr
          hintmask 00000000
          hintmask 10001101
          54 callsubr
          hintmask 01001110
          -14 -82 39 -61 100 -15 rrcurveto
          hintmask 10001101
          -65 -27 -67 -47 -77 -60 callsubr
          hintmask 10010110
          84 callgsubr
          51 55 35 40 21 vhcurveto
          81 35 51 58 14 23 -28 73 rcurveline
          -92 callsubr
          -123 -899 rlineto
          -56 -47 -71 -52 -83 hhcurveto
          -65 -30 38 96 22 11 88 16 118 hvcurveto
          25 189 37 266 25 190 rrcurveto
          95 callsubr
          hintmask 10100101
          107 callsubr
          hintmask 10001101
          -93 callsubr
          endchar
        </CharString>
        <CharString name="afii10092">
          56 -23 129 514 188 76 279 0 -20 hstemhm
          9 97 157 322 340 317 hintmask 00000000
          hintmask 11011110
          263 339 rmoveto
          -255 191 -107 214 315 259 225 285 273 -147 48 -154 -95 -95 -49 -51 -69 vhcurveto
          63 122 92 123 111 148 11 23 -52 49 -18 -10 rrcurveto
          -21 -43 -60 -14 -53 -126 -263 35 -157 hhcurveto
          -51 -35 -15 -7 -16 hvcurveto
          -89 -38 6 -277 16 -93 rrcurveto
          88 hlineto
          hintmask 11101110
          3 36 13 32 21 26 rrcurveto
          35 30 46 22 62 hhcurveto
          236 hlineto
          hintmask 11011110
          -171 -178 -83 -194 -173 vvcurveto
          322 hmoveto
          81 12 74 24 72 vhcurveto
          38 54 53 16 34 hhcurveto
          112 51 -90 -95 -170 -67 -159 -166 -54 -53 92 141 hvcurveto
          endchar
        </CharString>
        <CharString name="afii10093">
          108 callgsubr
          314 327 hintmask 00000000
          hintmask 01100111
          144 487 rmoveto
          hintmask 10110011
          -364 -74 209 -146 251 hhcurveto
          10 callgsubr
          -127 -101 -64 -60 -65 hvcurveto
          54 455 rlineto
          hintmask 01100111
          126 callgsubr
          982 -789 rmoveto
          -39 callsubr
          hintmask 10101011
          128 928 rlineto
          -332 hlineto
          -765 -1049 12 callsubr
        </CharString>
        <CharString name="afii10094">
          -97 -23 129 514 188 331 -20 44 -20 hstemhm
          129 314 314 327 hintmask 00000000
          hintmask 11011100
          144 487 rmoveto
          -364 -74 209 -146 251 hhcurveto
          10 callgsubr
          -127 -101 -64 -60 -65 hvcurveto
          hintmask 11101100
          54 455 rlineto
          hintmask 11011100
          126 callgsubr
          345 -857 12 callsubr
        </CharString>
        <CharString name="afii10095">
          150 callsubr
          hstem
          664 344 vstem
          3 50 -24 callsubr
        </CharString>
        <CharString name="afii10096">
          504 -29 130 -80 -21 508 139 376 142 -27 -20 hstemhm
          619 157 callsubr
          hintmask 00000000
          hintmask 01110110
          127 callsubr
          69 508 rlineto
          150 hlineto
          -1 -24 0 -25 1 -24 rrcurveto
          hintmask 10110110
          -299 11 152 -165 293 hhcurveto
          404 253 332 404 -13 hvcurveto
          299 -9 -157 159 -292 hhcurveto
          -330 -228 -218 -300 -65 hvcurveto
          -150 hlineto
          hintmask 01101110
          67 491 rlineto
          hintmask 10110110
          -65 25 -46 callgsubr
          772 -531 rmoveto
          260 -8 69 332 185 hhcurveto
          81 44 -75 -237 6 hvcurveto
          -268 7 -57 -342 -184 hhcurveto
          -97 -39 91 239 -7 hvcurveto
          endchar
        </CharString>
        <CharString name="afii10097">
          -68 0 127 -126 -21 496 135 425 127 -8 -20 hstemhm
          90 329 hintmask 00000000
          hintmask 10110100
          -27 hmoveto
          369 hlineto
          108 18 381 95 124 hvcurveto
          99 hlineto
          0 -42 -336 -11 vvcurveto
          hintmask 01101100
          -74 50 -75 139 161 122 113 31 17 vhcurveto
          -28 73 rlineto
          -27 -35 -36 -19 -21 hhcurveto
          -17 -24 19 29 9 129 947 0 hvcurveto
          -167 hlineto
          -67 -134 8 -97 hhcurveto
          hintmask 10110100
          -362 -189 -122 -258 -164 89 -95 182 -33 hvcurveto
          -70 -232 -34 -294 -51 hhcurveto
          -59 -27 rlineto
          652 511 rmoveto
          -144 -74 51 125 199 86 50 154 54 36 -3 -3 15 hvcurveto
          -55 -415 rlineto
          -5 -10 -46 1 -16 hhcurveto
          endchar
        </CharString>
        <CharString name="afii10098">
          -358 21 -21 1020 135 hstem
          83 900 vstem
          169 callgsubr
          140 1020 rlineto
          392 hlineto
          44 442 rlineto
          -155 hlineto
          -108 -307 rlineto
          -611 hlineto
          -25 -138 129 -53 rlineto
          endchar
        </CharString>
        <CharString name="afii10099">
          -18 -528 146 403 58 callsubr
          0 -20 148 108 126 -20 hstemhm
          245 160 414 346 hintmask 00000000
          hintmask 11011111
          71 177 callsubr
          86 706 rlineto
          hintmask 11101111
          138 62 106 121 82 hhcurveto
          53 24 -30 -110 2 hvcurveto
          2 -116 -70 -536 -19 -108 rrcurveto
          -194 -34 -30 -253 -189 hhcurveto
          -26 -30 6 6 -18 hvcurveto
          -38 -121 rlineto
          -25 27 64 -12 80 hhcurveto
          248 220 182 346 52 hvcurveto
          17 112 90 689 60 vvcurveto
          224 -111 78 -154 -163 -133 -100 -148 -88 vhcurveto
          46 376 rlineto
          257 hlineto
          14 108 rlineto
          -258 hlineto
          28 224 60 callgsubr
          -10 -83 rlineto
          -155 hlineto
          -14 -108 rlineto
          156 hlineto
          endchar
        </CharString>
        <CharString name="afii10100">
          -354 -20 178 826 179 68 512 hstemhm
          -2 342 84 509 -391 354 hintmask 00101000
          527 1231 -88 callsubr
          hintmask 11010100
          -426 -1077 rmoveto
          -142 133 -113 238 145 175 54 81 83 vhcurveto
          -31 135 rlineto
          -52 -74 -70 -40 -111 hhcurveto
          -35 callgsubr
        </CharString>
        <CharString name="afii10101">
          -212 -23 112 389 190 388 117 hstem
          60 351 vstem
          60 464 rmoveto
          -322 167 -165 325 111 224 40 10 54 vhcurveto
          32 260 rlineto
          -180 hlineto
          -67 -146 rlineto
          -35 -37 -38 -17 -47 hhcurveto
          -106 -87 119 262 24 0 24 1 23 hvcurveto
          177 -32 131 -25 110 -6 34 190 rcurveline
          -440 hlineto
          246 36 106 142 135 hhcurveto
          55 20 -38 0 hvcurveto
          93 -240 rlineto
          123 hlineto
          63 322 rlineto
          26 -67 -128 47 -144 hhcurveto
          -431 -225 -328 -381 hvcurveto
          endchar
        </CharString>
        <CharString name="afii10102">
          -391 -20 154 885 144 hstem
          95 322 55 327 vstem
          -1 49 -98 callgsubr
          endchar
        </CharString>
        <CharString name="afii10103">
          88 callgsubr
          107 498 -336 -63 callgsubr
          321 1209 -100 callsubr
        </CharString>
        <CharString name="afii10104">
          88 callgsubr
          74 326 -293 498 -79 326 hintmask 00011010
          669 1338 -106 callgsubr
          hintmask 00000000
          -107 -1209 -100 callgsubr
          hintmask 10100100
          52 callgsubr
          hintmask 11000100
          -76 callsubr
          endchar
        </CharString>
        <CharString name="afii10105">
          -611 105 callsubr
          195 363 hstemhm
          -249 828 -311 368 hintmask 00000000
          hintmask 10101000
          116 65 -77 callgsubr
          hintmask 11001000
          80 callsubr
          hintmask 10101000
          5 callsubr
          hintmask 00010100
          209 358 -100 callsubr
        </CharString>
        <CharString name="afii10106">
          446 -23 129 -101 -21 636 188 209 138 hstemhm
          680 310 310 327 hintmask 00000000
          hintmask 01111100
          66 callsubr
          81 380 33 277 14 120 rcurveline
          282 hlineto
          -68 -530 rlineto
          hintmask 10111100
          -368 -47 182 -142 251 hhcurveto
          10 callgsubr
          -122 -98 -59 -58 -65 hvcurveto
          65 464 102 callsubr
          -35 -266 -54 -272 -52 -111 rlinecurve
          -34 -15 -15 -19 -15 hhcurveto
          111 callgsubr
          hintmask 01111100
          -67 -285 rlineto
          -9 4 75 -15 23 hhcurveto
          hintmask 10111100
          966 400 rmoveto
          28 199 rlineto
          25 47 47 12 27 140 callgsubr
          -64 52 226 32 hvcurveto
          endchar
        </CharString>
        <CharString name="afii10107">
          525 -23 129 -85 167 callsubr
          -29 188 330 -20 37 -20 28 -20 hstemhm
          793 314 314 327 hintmask 0000000000000000
          hintmask 0110001110000000
          127 callsubr
          69 509 rlineto
          342 hlineto
          -3 -22 rlineto
          hintmask 1001010110000000
          -364 -74 209 -146 251 hhcurveto
          10 callgsubr
          -127 -101 -64 -61 -66 hvcurveto
          55 472 rlineto
          -309 hlineto
          hintmask 0110100110000000
          -69 -506 rlineto
          -342 hlineto
          67 489 rlineto
          hintmask 1001001110000000
          -65 25 -46 callgsubr
          912 -578 rmoveto
          22 197 rlineto
          27 50 53 callsubr
          -67 -73 53 225 41 hvcurveto
          endchar
        </CharString>
        <CharString name="afii10108">
          32 11 callgsubr
          0 -20 126 108 148 -20 hstemhm
          728 33 callsubr
          hintmask 00000000
          hintmask 01011101
          71 177 callsubr
          86 705 rlineto
          hintmask 01101101
          139 62 106 121 82 -75 callgsubr
          hintmask 10011110
          -22 callsubr
          -87 23 -84 -97 callsubr
          hintmask 01011101
          -69 callgsubr
          -163 -133 -101 -148 -88 vhcurveto
          43 355 rlineto
          186 hlineto
          20 108 rlineto
          -192 hlineto
          30 246 60 callgsubr
          -13 -105 rlineto
          -103 hlineto
          -20 -108 rlineto
          110 hlineto
          endchar
        </CharString>
        <CharString name="afii10109">
          -106 174 callsubr
          88 512 hstemhm
          586 509 -314 360 hintmask 00001100
          689 1231 -88 callsubr
          hintmask 00000000
          -503 -1312 rmoveto
          324 hlineto
          73 539 rlineto
          7 3 callgsubr
          hintmask 11010010
          -12 callgsubr
          68 494 rlineto
          hintmask 11100010
          -65 30 -46 callgsubr
          endchar
        </CharString>
        <CharString name="afii10110">
          -180 29 callgsubr
          103 109 hstemhm
          202 283 267 341 hintmask 11001000
          2 -107 callgsubr
          hintmask 00110000
          574 1517 -86 callgsubr
          endchar
        </CharString>
        <CharString name="afii10145">
          313 0 136 1276 110 hstem
          589 197 vstem
          -26 hmoveto
          622 hlineto
          -7 -354 rlineto
          158 hlineto
          120 354 rlineto
          600 hlineto
          12 106 -157 30 167 1250 142 26 9 -61 callsubr
          -607 hlineto
          -12 -110 115 106 callsubr
          rlineto
          -474 hlineto
          167 1250 119 -62 callsubr
          -627 hlineto
          -14 -110 158 138 callgsubr
          -159 -30 rlineto
          endchar
        </CharString>
        <CharString name="afii10146">
          203 -18 124 -85 -21 715 146 283 140 102 -34 callgsubr
          -101 101 hstemhm
          1034 177 callgsubr
          hintmask 01110011
          99 hmoveto
          279 76 callgsubr
          hintmask 10110011
          412 270 167 336 247 -185 129 -314 -65 -75 -11 -11 -55 hvcurveto
          41 314 341 -17 -12 -152 rlineto
          175 hlineto
          74 301 rlineto
          -560 hlineto
          13 101 91 callgsubr
          hintmask 10110101
          -12 -9 callgsubr
          hintmask 10111001
          147 -26 -13 -101 rlineto
          -411 hlineto
          -59 -301 rlineto
          174 hlineto
          64 152 214 17 -134 -1018 -150 -29 rlineto
          498 4 rmoveto
          78 593 9 -1 rlineto
          9 26 54 4 39 hhcurveto
          161 57 -110 -149 -203 -111 -147 -205 -48 -33 1 3 -27 hvcurveto
          endchar
        </CharString>
        <CharString name="afii10147">
          198 -20 122 1316 120 callgsubr
          65 637 rmoveto
          -373 165 -284 415 565 225 460 453 345 -157 304 -423 -540 -250 -443 -462 vhcurveto
          392 201 rmoveto
          314 36 128 266 207 hhcurveto
          161 62 -192 -323 3 hvcurveto
          -39 -33 -51 -33 -63 -78 -50 124 -123 hhcurveto
          -81 -68 -51 -66 -50 hvcurveto
          217 -736 rmoveto
          -195 -33 290 257 hvcurveto
          20 vlineto
          44 32 55 34 72 73 57 -134 121 hhcurveto
          80 64 44 61 48 hvcurveto
          -352 -28 -120 -264 -226 hhcurveto
          endchar
        </CharString>
        <CharString name="afii10148">
          28 -10 185 -164 -21 1396 -34 callgsubr
          13 -20 hstemhm
          -24 1459 hintmask 00000000
          hintmask 01001100
          339 -10 rmoveto
          382 hlineto
          428 1082 74 197 100 48 70 -1 rlinecurve
          9 8 -1 -2 8 hvcurveto
          17 207 rlineto
          5 -9 -31 10 -49 hhcurveto
          -112 -129 -67 -196 -67 hvcurveto
          -304 -847 rlineto
          hintmask 10100100
          -94 -250 -48 335 -110 876 rlineto
          hintmask 01010100
          119 callsubr
        </CharString>
        <CharString name="afii10193">
          -61 callgsubr
          hstemhm
          117 335 32 246 hintmask 00000000
          hintmask 10001110
          117 235 -98 callsubr
          hintmask 01010110
          -85 callgsubr
          hintmask 10100110
          -94 callsubr
          hintmask 10001110
          -93 callsubr
          367 -474 rmoveto
          -65 12 -26 -47 vvcurveto
          -61 -44 -20 -50 -20 vhcurveto
          73 -82 rlineto
          118 29 137 75 106 77 -21 49 42 vvcurveto
          54 21 35 46 30 vhcurveto
          -54 42 rlineto
          -58 -6 -180 -87 -125 vvcurveto
          endchar
        </CharString>
        <CharString name="afii10194">
          491 -23 129 -85 -21 620 188 157 198 -24 -20 44 -20 hstemhm
          764 313 -257 346 224 327 hintmask 0000000000000000
          hintmask 0110011010000000
          76 hmoveto
          51 callsubr
          hintmask 0111000110000000
          132 62 101 112 79 hhcurveto
          53 24 -30 -110 2 hvcurveto
          2 -116 -25 -115 -20 -107 rrcurveto
          hintmask 1010011010000000
          -365 -68 203 -145 251 hhcurveto
          10 callgsubr
          hvcurveto
          hintmask 0110010110000000
          -113 -93 -51 -54 -65 hvcurveto
          12 73 9 61 24 vvcurveto
          224 -111 78 -154 -158 -129 -94 -140 -88 vhcurveto
          hintmask 0110101010000000
          16 210 rlineto
          hintmask 1010011010000000
          75 callgsubr
          881 -578 rmoveto
          37 204 rlineto
          22 44 42 10 26 140 callgsubr
          -72 53 225 40 hvcurveto
          endchar
        </CharString>
        <CharString name="afii10195">
          39 callgsubr
          hstem
          48 359 378 39 callsubr
          382 281 rmoveto
          168 33 71 139 120 hhcurveto
          81 44 -75 -237 6 hvcurveto
          -29 vlineto
          -43 -23 -27 -41 -45 -67 -17 145 -104 hhcurveto
          -24 -25 -11 -16 -23 hvcurveto
          121 -615 rmoveto
          -97 -39 91 239 -7 hvcurveto
          -1 21 0 22 22 vvcurveto
          24 20 24 17 29 hhcurveto
          -2 81 2 -143 119 hhcurveto
          29 30 16 24 27 hvcurveto
          -180 -29 -66 -151 -122 hhcurveto
          endchar
        </CharString>
        <CharString name="afii10196">
          -220 0 -21 1169 -20 34 -20 21 -20 hstemhm
          -25 1224 hintmask 00000000
          hintmask 10011000
          324 -21 rmoveto
          251 hlineto
          358 769 rlineto
          151 70 88 37 58 hhcurveto
          7 8 -1 -2 6 hvcurveto
          hintmask 11001000
          29 215 rlineto
          hintmask 10101000
          5 -8 -62 9 -41 hhcurveto
          -101 -115 -75 -202 -76 hvcurveto
          -161 -430 -67 -196 -22 196 -93 571 rlineto
          hintmask 10011000
          88 -14 -76 49 -120 hhcurveto
          -143 -106 -111 -24 -19 hvcurveto
          29 -80 19 15 30 19 26 -1 rlinecurve
          22 -1 12 -14 9 -41 rrcurveto
          endchar
        </CharString>
        <CharString name="afii10846">
          109 callsubr
          hstem
          7 321 298 359 vstem
          7 226 -60 callgsubr
        </CharString>
        <CharString name="afii61248">
          647 165 callsubr
          112 -77 146 489 120 40 -20 hstemhm
          150 236 621 241 279 250 hintmask 0000000000000000
          hintmask 1110111110000000
          377 hmoveto
          199 hlineto
          947 1530 rlineto
          -199 hlineto
          hintmask 1101111110000000
          -856 -795 rmoveto
          160 81 56 54 72 hvcurveto
          -48 105 rlineto
          -30 -39 -81 -39 -111 hhcurveto
          -87 -29 82 105 225 87 77 117 28 24 -10 -14 9 hvcurveto
          17 -135 rlineto
          135 hlineto
          38 225 rlineto
          7 -35 -55 47 -158 hhcurveto
          -221 -222 -185 -250 -205 148 -115 170 hvcurveto
          hintmask 1110111110000000
          539 -358 rmoveto
          -176 121 -144 197 264 188 231 219 172 -115 133 -212 -251 -192 -223 -212 vhcurveto
          241 2 rmoveto
          -11 callsubr
          -79 -27 85 124 vhcurveto
          endchar
        </CharString>
        <CharString name="afii61352">
          1294 0 178 332 143 737 30 -26 139 -113 110 -110 113 hstemhm
          1637 272 366 279 hintmask 00000000
          hintmask 11000111
          1637 949 rmoveto
          -270 151 -169 252 220 294 170 418 269 -150 166 -252 -242 -273 -199 -385 vhcurveto
          -1670 -949 rmoveto
          129 callsubr
          396 -1028 rlineto
          353 hlineto
          207 1394 123 26 rlineto
          hintmask 11001011
          101 callsubr
          -502 hlineto
          hintmask 11000111
          114 callsubr
          hintmask 11010011
          172 -26 -131 -1089 -78 230 rlineto
          hintmask 11001011
          -376 995 rlineto
          -552 hlineto
          hintmask 11000111
          144 callsubr
          hintmask 11010011
          154 callsubr
          1934 837 rmoveto
          hintmask 11100011
          179 19 268 201 107 39 -109 -178 -320 -74 -130 -145 vhcurveto
          hintmask 11010011
          -107 -40 112 178 hvcurveto
          hintmask 11000111
          -352 -943 rmoveto
          833 hlineto
          12 178 rlineto
          -833 hlineto
          endchar
        </CharString>
        <CharString name="agrave">
          10 callsubr
          78 502 128 callgsubr
          -85 491 hintmask 11010000
          -107 callsubr
          hintmask 00101000
          153 1087 -58 callgsubr
        </CharString>
        <CharString name="amacron">
          10 callsubr
          242 209 128 callgsubr
          49 591 hintmask 11010000
          -107 callsubr
          hintmask 00101000
          -99 1251 -42 callsubr
          endchar
        </CharString>
        <CharString name="ampersand">
          548 -37 141 -103 -21 598 238 -221 237 597 123 hstemhm
          71 346 -35 340 314 321 -263 662 -481 272 hintmask 0000000000000000
          hintmask 0100110100000000
          71 340 rmoveto
          hintmask 1000110100000000
          -234 250 -143 355 118 130 20 39 122 vhcurveto
          hintmask 0110110001000000
          -27 63 77 -15 98 hhcurveto
          152 67 10 29 69 hvcurveto
          1 125 -61 -8 -98 15 -57 28 rlinecurve
          -6 3 rlineto
          118 95 78 125 154 vvcurveto
          22 32 vlineto
          hintmask 0110110010000000
          159 54 209 181 -59 hvcurveto
          -113 hlineto
          -123 -19 -32 -29 -111 hhcurveto
          hintmask 0101110010000000
          -92 -42 16 -75 hhcurveto
          hintmask 0101110001000000
          -88 -49 -31 -18 -18 hvcurveto
          -226 vlineto
          24 29 61 14 65 hhcurveto
          23 hlineto
          2 -25 1 -28 -30 vvcurveto
          -85 -25 -72 -44 -59 vhcurveto
          -23 21 -20 19 -11 13 -114 124 -68 85 -123 220 rrcurveto
          hintmask 0100101100000000
          248 105 262 104 261 vvcurveto
          166 -134 138 -298 -313 -230 -167 -291 -98 37 -119 43 -100 vhcurveto
          hintmask 0100110100000000
          -207 -83 -184 -107 -247 vvcurveto
          hintmask 0100101100000000
          710 564 rmoveto
          -31 67 -28 87 102 vvcurveto
          151 42 118 155 91 26 -107 -90 -167 -110 -92 -145 -69 vhcurveto
          hintmask 1000110100000000
          -364 -522 rmoveto
          102 51 74 78 61 vhcurveto
          109 -184 94 -168 156 -145 rrcurveto
          -12 -56 -61 -6 -64 hhcurveto
          -183 -124 103 175 hvcurveto
          endchar
        </CharString>
        <CharString name="aogonek">
          -49 171 callsubr
          267 174 -153 -21 40 -21 1024 140 128 callgsubr
          131 281 hintmask 00000000
          hintmask 00011100
          60 402 rmoveto
          hintmask 01001100
          -230 103 -192 250 139 100 61 65 65 vhcurveto
          hintmask 10101110
          2 -51 27 -37 45 -19 -68 -34 -72 -47 -69 -100 102 callgsubr
          44 callsubr
          67 95 83 118 78 hvcurveto
          73 35 47 53 16 23 -28 73 rcurveline
          -37 -48 -26 -9 -19 hhcurveto
          -30 -15 22 54 6 hvcurveto
          129 936 -152 -43 rlineto
          21 -61 -97 22 -80 hhcurveto
          hintmask 00011100
          -453 -233 -372 -389 hvcurveto
          hintmask 01001100
          494 -248 rmoveto
          -91 -57 95 164 267 73 343 243 24 22 -2 -4 22 hvcurveto
          -110 -808 rlineto
          -32 -36 -43 -23 -47 hhcurveto
          endchar
        </CharString>
        <CharString name="approxequal">
          -238 257 242 -80 232 52 242 -80 232 hstemhm
          1 970 -920 970 hintmask 00000000
          hintmask 01001000
          85 322 165 callgsubr
          hintmask 10001000
          28 callgsubr
          hintmask 01001000
          72 callsubr
          hintmask 00000000
          134 327 165 callgsubr
          hintmask 00010100
          28 callgsubr
          hintmask 00100100
          72 callsubr
          endchar
        </CharString>
        <CharString name="aring">
          10 callsubr
          90 143 268 140 128 callgsubr
          53 194 302 193 hintmask 11001000
          -107 callsubr
          hintmask 00110110
          214 1099 -23 callsubr
          endchar
        </CharString>
        <CharString name="arrowdown">
          133 callsubr
          790 rmoveto
          57 -257 -357 358 -161 -158 589 -590 590 590 -161 158 -358 -358 58 257 rlineto
          657 -257 vlineto
          endchar
        </CharString>
        <CharString name="arrowleft">
          146 callgsubr
          703 177 rmoveto
          158 161 -359 358 258 -58 rlineto
          657 257 -657 hlineto
          -258 -58 359 358 -158 161 -590 -590 rlineto
          endchar
        </CharString>
        <CharString name="arrowright">
          146 callgsubr
          1417 766 rmoveto
          -590 590 -158 -161 359 -358 -258 58 rlineto
          -657 -257 657 hlineto
          258 58 -359 -358 158 -161 rlineto
          endchar
        </CharString>
        <CharString name="arrowup">
          133 callsubr
          143 rmoveto
          257 657 hlineto
          -58 257 358 -358 161 158 -590 590 -589 -590 161 -158 357 358 -57 -257 rlineto
          endchar
        </CharString>
        <CharString name="asciicircum">
          99 1531 -20 hstem
          185 993 vstem
          185 413 rmoveto
          255 hlineto
          240 703 241 -703 rlineto
          257 hlineto
          -397 1118 rlineto
          -204 hlineto
          endchar
        </CharString>
        <CharString name="asciitilde">
          -127 692 242 -80 232 hstemhm
          108 970 hintmask 00000000
          hintmask 01100000
          192 757 165 callgsubr
          hintmask 10100000
          28 callgsubr
          hintmask 01100000
          72 callsubr
          endchar
        </CharString>
        <CharString name="asterisk">
          102 1149 -20 22 -20 hstemhm
          221 1069 hintmask 00000000
          hintmask 01100000
          317 785 rmoveto
          309 217 46 38 -16 -54 -82 -358 252 -1 -7 355 -6 64 42 -42 263 -217 141 204 rlineto
          hintmask 10100000
          -320 139 -53 19 60 20 344 138 -96 208 -310 -218 -46 -36 15 53 83 358 -252 1 7 -355 6 -62 -42 39 -262 218 -141 -204 rlineto
          hintmask 01100000
          320 -140 52 -18 -60 -20 -343 -138 rlineto
          endchar
        </CharString>
        <CharString name="at">
          705 -437 165 262 183 -166 219 738 153 288 169 hstemhm
          55 223 207 253 431 217 329 197 hintmask 0000000000000000
          hintmask 1101111110000000
          55 337 rmoveto
          -538 393 -236 458 174 156 47 71 94 vhcurveto
          -43 108 rlineto
          -31 -64 -171 -30 -111 hhcurveto
          -344 -319 201 479 475 321 522 509 288 319 -168 -414 -304 -134 -346 -168 -10 -17 12 54 41 -5 47 10 103 hvcurveto
          19 201 51 319 39 153 -205 -50 rcurveline
          39 -56 -95 25 -55 hhcurveto
          -390 -214 -356 -320 hvcurveto
          hintmask 1011111110000000
          -297 163 -137 165 148 156 237 213 90 vhcurveto
          -21 -91 -17 -124 -47 vvcurveto
          hintmask 1101111110000000
          -119 34 -86 91 313 305 353 570 408 -304 253 -412 -539 -602 -495 -742 vhcurveto
          hintmask 1011111110000000
          683 110 rmoveto
          246 107 271 224 56 87 -43 -39 20 vhcurveto
          -194 -24 -244 -462 -110 hhcurveto
          -82 -34 134 87 hvcurveto
          endchar
        </CharString>
        <CharString name="atilde">
          10 callsubr
          155 71 callgsubr
          60 346 -21 776 hintmask 11001000
          -107 callsubr
          hintmask 00000000
          -92 1233 11 callsubr
          hintmask 00010100
          -47 callsubr
          hintmask 00100100
          83 callsubr
        </CharString>
        <CharString name="b">
          -62 -20 139 869 175 364 -20 hstem
          796 341 vstem
          66 -20 rmoveto
          146 43 rlineto
          -21 65 95 -22 83 -39 callgsubr
          endchar
        </CharString>
        <CharString name="backslash">
          -410 -362 1959 hstem
          26 805 vstem
          602 -362 rmoveto
          229 hlineto
          -577 1959 rlineto
          -228 hlineto
          endchar
        </CharString>
        <CharString name="bar">
          135 callgsubr
          -186 rmoveto
          213 1966 -213 hlineto
          endchar
        </CharString>
        <CharString name="braceleft">
          -220 -226 171 1656 164 hstem
          222 515 vstem
          222 -83 rmoveto
          -110 -1 124 -33 125 hhcurveto
          110 74 21 26 91 hvcurveto
          0 13 109 3 15 vhcurveto
          -275 hlineto
          95 630 6 41 -17 37 -30 31 rlinecurve
          -29 30 -54 31 -59 31 rrcurveto
          0 116 53 29 17 vhcurveto
          53 33 37 37 8 54 96 631 rcurveline
          276 hlineto
          1 19 19 98 0 vvcurveto
          0 -171 47 -89 -157 -127 -54 -198 -31 vhcurveto
          -84 -547 -4 -23 -25 -21 -36 -19 rlinecurve
          -52 -27 -75 -22 -65 -16 -18 -124 rcurveline
          59 -14 63 -25 43 -29 rrcurveto
          32 -21 20 -24 -22 vvcurveto
          0 -93 -633 -1 -29 vhcurveto
          endchar
        </CharString>
        <CharString name="braceright">
          -220 -219 164 1656 171 hstem
          311 515 vstem
          826 1629 rmoveto
          110 1 -124 33 -125 hhcurveto
          -110 -74 -21 -26 -91 hvcurveto
          0 -13 -109 -3 -15 vhcurveto
          275 hlineto
          -95 -630 -6 -41 17 -37 30 -31 rlinecurve
          29 -30 54 -31 59 -31 rrcurveto
          0 -116 -53 -29 -17 vhcurveto
          -53 -33 -37 -37 -8 -54 -96 -631 rcurveline
          -276 hlineto
          -1 -19 -19 -98 0 vvcurveto
          0 171 -47 89 157 127 54 198 31 vhcurveto
          84 547 4 23 25 21 36 19 rlinecurve
          52 27 75 22 65 16 18 124 rcurveline
          -59 14 -63 25 -43 29 rrcurveto
          -32 21 -20 24 22 vvcurveto
          0 93 633 1 29 vhcurveto
          endchar
        </CharString>
        <CharString name="bracketleft">
          -390 -232 176 1657 170 hstem
          110 488 vstem
          114 21 rmoveto
          -5 -40 1 -36 -34 vvcurveto
          -110 126 -33 126 109 73 21 26 91 vhcurveto
          15 128 -275 2 223 1656 rlineto
          275 hlineto
          20 123 rlineto
          0 -172 47 -88 -158 -128 -60 -192 -25 vhcurveto
          endchar
        </CharString>
        <CharString name="bracketright">
          -390 -215 170 1657 176 hstem
          297 488 vstem
          781 1535 rmoveto
          5 40 -1 36 34 vvcurveto
          110 -126 33 -126 -109 -73 -21 -26 -91 vhcurveto
          -15 -128 275 -2 -223 -1656 rlineto
          -275 hlineto
          -20 -123 rlineto
          0 172 -47 88 158 128 60 192 25 vhcurveto
          endchar
        </CharString>
        <CharString name="breve">
          -547 1300 217 hstem
          51 138 callsubr
          vstem
          363 1300 -83 callsubr
        </CharString>
        <CharString name="breve.cap">
          -549 1633 217 hstem
          44 117 callsubr
          vstem
          358 1633 50 callsubr
        </CharString>
        <CharString name="breve.r">
          -286 1246 109 hstem
          77 283 vstem
          451 1246 -86 callgsubr
          endchar
        </CharString>
        <CharString name="breve.rcap">
          -547 1624 109 hstemhm
          -66 312 hintmask 00000000
          hintmask 11000000
          332 1624 -96 callsubr
          endchar
        </CharString>
        <CharString name="brokenbar">
          135 callgsubr
          916 rmoveto
          213 864 -213 hlineto
          -1966 vmoveto
          213 864 -213 hlineto
          endchar
        </CharString>
        <CharString name="bullet">
          -406 484 506 hstem
          185 501 vstem
          401 484 rmoveto
          203 82 154 141 116 -98 95 -118 -183 -102 -150 -141 -113 99 -102 117 hvcurveto
          endchar
        </CharString>
        <CharString name="c">
          68 callsubr
          hstem
          59 341 vstem
          447 -20 -82 callsubr
        </CharString>
        <CharString name="cacute">
          68 callsubr
          68 512 hstemhm
          59 341 166 509 hintmask 00101000
          669 1231 -88 callsubr
          hintmask 11010000
          -119 -1332 -82 callsubr
        </CharString>
        <CharString name="caron">
          -470 172 callsubr
          260 1238 49 callsubr
        </CharString>
        <CharString name="caron.cap">
          -472 1599 415 hstem
          92 755 vstem
          302 1599 -11 callgsubr
        </CharString>
        <CharString name="caronvertical">
          -949 1035 645 hstem
          248 240 vstem
          213 1065 -49 callgsubr
        </CharString>
        <CharString name="ccaron">
          68 callsubr
          75 432 hstemhm
          59 341 -61 755 hintmask 00101000
          549 1238 -57 callgsubr
          hintmask 11010000
          108 -1632 -82 callsubr
        </CharString>
        <CharString name="ccedilla">
          -303 179 callsubr
          322 -21 33 -21 1012 157 hstemhm
          59 341 14 200 hintmask 00000000
          hintmask 10111000
          153 -303 rmoveto
          -35 -153 rlineto
          -16 22 123 -12 53 hhcurveto
          hintmask 10111100
          81 callgsubr
          72 -17 101 -21 59 hvcurveto
          164 34 109 95 44 71 -64 103 rcurveline
          76 callsubr
          hintmask 11011000
          -86 callsubr
          4 -293 132 -158 212 -17 rrcurveto
          hintmask 10111100
          5 -37 4 -47 -2 -52 rrcurveto
          -128 -6 -75 -37 -102 hhcurveto
          hintmask 10111000
          -31 -30 7 9 -17 hvcurveto
          endchar
        </CharString>
        <CharString name="ccircumflex">
          68 callsubr
          75 432 hstemhm
          59 341 -89 755 hintmask 00101000
          418 1239 -72 callgsubr
          hintmask 11010000
          136 -1316 -82 callsubr
        </CharString>
        <CharString name="cdotaccent">
          68 callsubr
          175 363 hstemhm
          59 341 121 368 hintmask 11010000
          447 -20 -81 callsubr
          hintmask 00101000
          236 1358 -100 callsubr
        </CharString>
        <CharString name="cedilla">
          -785 179 callsubr
          hstem
          260 200 vstem
          245 30 rmoveto
          7 -32 12 -72 -4 -80 -44 callsubr
          91 -27 138 -28 39 hvcurveto
          -83 4 rlineto
          endchar
        </CharString>
        <CharString name="cent">
          -208 3 -21 30 -21 1015 157 0 -20 hstemhm
          117 341 hintmask 00000000
          hintmask 01011000
          403 -9 rmoveto
          -38 -206 rlineto
          150 hlineto
          hintmask 10101000
          36 197 211 15 137 115 52 82 rlinecurve
          -64 103 rlineto
          76 callsubr
          -116 -54 81 210 -5 hvcurveto
          322 -8 132 224 109 hhcurveto
          44 82 -132 -71 46 hvcurveto
          73 hlineto
          83 322 -64 24 -99 13 -80 1 rlinecurve
          43 195 rlineto
          -150 hlineto
          -46 -209 -347 -69 -165 -329 6 -301 rlinecurve
          hintmask 01011000
          4 -263 107 -155 175 -41 rrcurveto
          endchar
        </CharString>
        <CharString name="circumflex">
          -469 172 callsubr
          157 1239 35 callsubr
        </CharString>
        <CharString name="circumflex.cap">
          -470 1678 -21 hstem
          30 755 vstem
          137 1600 -84 callgsubr
        </CharString>
        <CharString name="colon">
          -708 1 -21 830 -21 hstemhm
          61 339 -233 339 hintmask 01010000
          167 950 -65 callgsubr
          hintmask 10100000
          -106 -809 -55 callsubr
        </CharString>
        <CharString name="colonmonetary">
          389 -16 163 -134 -21 1414 134 hstemhm
          225 311 hintmask 00000000
          hintmask 01110000
          592 15 rmoveto
          -65 -340 rlineto
          107 hlineto
          60 317 rlineto
          hintmask 10110000
          -5 35 37 -3 38 hhcurveto
          15 16 0 1 15 hvcurveto
          -59 -310 rlineto
          107 hlineto
          62 323 77 12 67 18 48 16 rlinecurve
          49 13 70 10 39 3 80 342 rcurveline
          -140 1 -102 -188 -23 -25 -61 -22 -72 -14 rlinecurve
          229 1196 29 -12 26 -14 22 -16 rlinecurve
          19 -198 99 callgsubr
          -36 11 -57 13 -69 11 55 286 rcurveline
          -107 hlineto
          -53 -273 rlineto
          4 -42 -43 2 -42 hhcurveto
          -10 -9 0 -1 -9 hvcurveto
          51 268 rlineto
          -107 hlineto
          -54 -280 rlineto
          -345 -64 -313 -307 -552 vvcurveto
          hintmask 01110000
          -304 130 -214 237 -77 vhcurveto
          hintmask 10110000
          137 155 rmoveto
          237 1235 rlineto
          3 4 1 4 hhcurveto
          50 48 -5 -10 45 hvcurveto
          -238 -1242 rlineto
          -2 -20 -20 0 -19 hhcurveto
          -32 -32 7 16 -30 hvcurveto
          -92 79 rmoveto
          -63 83 -42 131 4 180 6 369 138 273 173 89 rrcurveto
          endchar
        </CharString>
        <CharString name="comma">
          -708 -500 -21 hstem
          190 252 vstem
          88 40 callsubr
          endchar
        </CharString>
        <CharString name="commaaccent">
          -897 145 callgsubr
          hstem
          97 256 vstem
          41 -141 -96 callgsubr
          endchar
        </CharString>
        <CharString name="copyright">
          504 32 126 208 146 621 114 207 125 hstem
          158 139 245 204 353 104 367 139 vstem
          0 callgsubr
          245 -4 rmoveto
          -239 1 138 -197 239 hhcurveto
          119 117 45 47 57 hvcurveto
          -40 104 rlineto
          -25 -44 -80 -25 -96 hhcurveto
          -102 -107 70 279 2 hvcurveto
          156 1 81 116 120 hhcurveto
          39 39 -13 -26 29 hvcurveto
          44 -120 rlineto
          104 235 hlineto
          22 -41 -103 16 -90 hhcurveto
          -268 -161 -205 -240 2 hvcurveto
          endchar
        </CharString>
        <CharString name="currency">
          276 252 222 432 222 hstem
          342 234 412 234 vstem
          204 243 rmoveto
          142 -141 211 211 rlineto
          -39 66 77 -22 82 hhcurveto
          85 80 24 41 67 hvcurveto
          211 -210 142 141 -211 211 rlineto
          42 67 24 79 85 vvcurveto
          82 -23 76 -39 65 vhcurveto
          209 209 -141 142 -207 -206 rlineto
          44 -69 -82 26 -88 hhcurveto
          -84 -78 -24 -40 -67 hvcurveto
          -211 213 -141 -142 209 -210 rlineto
          -43 -68 -25 -80 -87 vvcurveto
          -88 26 -82 44 -69 vhcurveto
          164 239 rmoveto
          118 92 98 114 114 92 -98 -118 -118 -92 -98 -114 -114 -92 98 118 vhcurveto
          endchar
        </CharString>
        <CharString name="d">
          175 callsubr
          391 68 callgsubr
          hintmask 00000000
          hintmask 11011100
          -79 callsubr
          hintmask 10111100
          -48 -328 rlineto
          hintmask 11011100
          -88 callgsubr
          endchar
        </CharString>
        <CharString name="dagger">
          -448 1107 191 hstemhm
          103 787 -467 177 hintmask 00000000
          hintmask 11000000
          251 151 rmoveto
          177 hlineto
          hintmask 10100000
          171 857 3 134 callsubr
          40 177 rlineto
          -260 hlineto
          -21 -177 -1 -171 rlineto
          -291 hlineto
          -29 -191 rlineto
          270 hlineto
          -23 -99 rlineto
          endchar
        </CharString>
        <CharString name="daggerdbl">
          -448 606 194 307 191 hstemhm
          47 841 -467 178 hintmask 00000000
          hintmask 11100000
          211 -51 rmoveto
          178 hlineto
          128 510 8 147 rlineto
          247 hlineto
          29 194 rlineto
          hintmask 11010000
          -250 hlineto
          48 208 1 134 callsubr
          38 177 rlineto
          -261 hlineto
          -19 -177 rlineto
          -171 -291 vlineto
          -29 -191 rlineto
          270 hlineto
          -21 -98 -22 -209 rlineto
          -248 hlineto
          -33 -194 rlineto
          248 hlineto
          -37 -149 rlineto
          endchar
        </CharString>
        <CharString name="dcaron">
          227 -20 174 851 645 -627 140 -9 -20 391 68 callgsubr
          323 240 hintmask 00000000
          hintmask 10101110
          -79 callsubr
          hintmask 10011110
          -48 -328 rlineto
          hintmask 10101110
          -88 callgsubr
          hintmask 01000001
          779 881 -49 callgsubr
        </CharString>
        <CharString name="dcroat">
          175 callsubr
          128 130 133 68 callgsubr
          hintmask 00000000
          hintmask 11011110
          404 -20 rmoveto
          168 108 90 77 56 hvcurveto
          -109 8 49 -58 119 hhcurveto
          164 92 117 27 23 94 callgsubr
          -49 -24 -9 -19 hhcurveto
          -32 -10 30 48 7 hvcurveto
          149 1033 rlineto
          129 hlineto
          16 130 rlineto
          -126 hlineto
          34 231 -56 27 -432 -42 -19 -83 156 -43 -13 -90 rlineto
          -286 hlineto
          -16 -130 rlineto
          283 hlineto
          hintmask 10111110
          -16 -108 rlineto
          hintmask 11011110
          -88 callgsubr
          endchar
        </CharString>
        <CharString name="degree">
          -307 934 157 373 157 hstem
          182 176 352 176 vstem
          522 934 rmoveto
          206 155 147 197 3 hvcurveto
          189 3 -149 154 -197 hhcurveto
          -206 -152 -148 -195 -3 hvcurveto
          -189 -3 146 -155 197 hhcurveto
          8 157 rmoveto
          -98 -76 84 103 2 hvcurveto
          106 1 75 80 103 hhcurveto
          98 77 -83 -103 -2 hvcurveto
          -107 -1 -76 -80 -103 hhcurveto
          endchar
        </CharString>
        <CharString name="dieresis">
          -455 1338 363 hstem
          17 62 callsubr
          vstem
          612 1338 -70 callgsubr
        </CharString>
        <CharString name="dieresis.cap">
          -458 1682 -21 hstem
          21 21 callsubr
          vstem
          608 1661 -94 callgsubr
        </CharString>
        <CharString name="divide">
          106 149 361 164 197 164 361 hstemhm
          496 339 -226 339 cntrmask 11100000
          166 callgsubr
          746 1035 rmoveto
          96 106 64 136 82 -49 79 -99 -91 -100 -75 -125 -92 62 -69 75 hvcurveto
          -502 -361 rmoveto
          939 hlineto
          18 197 rlineto
          -939 hlineto
          hintmask 11110000
          234 -561 -55 callsubr
        </CharString>
        <CharString name="dollar">
          -59 -19 125 -104 -21 1556 -20 hstemhm
          164 317 -279 85 473 328 hintmask 00000000
          hintmask 01110100
          17 75 rmoveto
          38 -32 157 -48 184 -14 -33 -211 rcurveline
          180 hlineto
          34 210 rlineto
          361 27 150 209 229 vvcurveto
          211 -151 127 -168 104 vhcurveto
          -196 121 -92 79 145 vvcurveto
          105 65 78 145 72 54 -18 -34 48 vhcurveto
          28 -198 rlineto
          191 hlineto
          54 302 -52 29 -88 30 -145 11 rlinecurve
          31 192 rlineto
          -181 hlineto
          -30 -190 rlineto
          -296 -19 -213 -158 -271 vvcurveto
          -208 153 -135 177 -113 vhcurveto
          186 -119 80 -73 -128 vvcurveto
          hintmask 10101100
          -113 -59 -96 -200 -90 -68 30 38 -51 vhcurveto
          -9 219 rlineto
          -204 hlineto
          125 -123 rmoveto
          -3 6 rlineto
          endchar
        </CharString>
        <CharString name="dong">
          65 0 145 102 135 -125 132 677 102 -21 -20 172 108 263 -21 hstemhm
          130 296 hintmask 00000000
          hintmask 10101111
          480 257 rmoveto
          135 62 50 63 52 hvcurveto
          hintmask 11001111
          -3 -25 rlineto
          -1 -11 -1 -10 -9 vvcurveto
          -62 61 -6 70 83 128 23 15 57 vhcurveto
          12 97 rlineto
          -122 hlineto
          120 917 rlineto
          143 hlineto
          13 108 rlineto
          -142 hlineto
          32 242 -41 31 rlineto
          -1 hlineto
          -393 -43 -11 -92 141 -15 -16 -123 rlineto
          -270 hlineto
          -13 -108 rlineto
          268 hlineto
          -20 -152 rlineto
          hintmask 10110111
          12 -31 -34 9 -61 hhcurveto
          -383 -184 -253 -304 hvcurveto
          hintmask 10101111
          -235 139 -119 211 vhcurveto
          76 132 rmoveto
          -83 -47 88 168 hvcurveto
          hintmask 10110111
          198 67 223 178 73 41 -21 -21 22 vhcurveto
          -69 -524 rlineto
          hintmask 10101111
          -30 -21 -58 -81 -103 hhcurveto
          -454 -389 rmoveto
          945 hlineto
          15 145 rlineto
          -945 hlineto
          endchar
        </CharString>
        <CharString name="dotaccent">
          -876 1338 363 hstem
          11 368 vstem
          173 1338 -100 callsubr
        </CharString>
        <CharString name="dotaccent.cap">
          -875 1612 363 hstem
          1 388 vstem
          173 1612 -27 callsubr
        </CharString>
        <CharString name="dotlessi">
          8 callsubr
          hstemhm
          107 498 132 callgsubr
          -74 callgsubr
          hintmask 11010000
          52 callgsubr
          hintmask 10110000
          -76 callsubr
          endchar
        </CharString>
        <CharString name="dotlessj">
          -610 105 callsubr
          hstemhm
          -248 828 132 callgsubr
          117 65 -77 callgsubr
          hintmask 11010000
          80 callsubr
          hintmask 10110000
          5 callsubr
          endchar
        </CharString>
        <CharString name="e">
          -36 callgsubr
          hstem
          61 359 298 321 vstem
          61 430 -93 callgsubr
        </CharString>
        <CharString name="eacute">
          -36 callgsubr
          66 512 144 callgsubr
          171 509 -382 321 hintmask 00010100
          694 1231 -88 callsubr
          hintmask 11101010
          -530 -882 -93 callgsubr
        </CharString>
        <CharString name="ebreve">
          -36 callgsubr
          135 217 144 callgsubr
          -14 188 124 321 -154 183 hintmask 11101010
          61 430 -106 callsubr
          hintmask 00010101
          298 725 -83 callsubr
        </CharString>
        <CharString name="ecaron">
          -36 callgsubr
          73 432 144 callgsubr
          -56 755 -401 321 hintmask 00010100
          574 1238 -57 callgsubr
          hintmask 11101010
          -303 -1182 -93 callgsubr
        </CharString>
        <CharString name="ecircumflex">
          -36 callgsubr
          73 432 144 callgsubr
          -84 755 -373 321 hintmask 00010100
          443 1239 -72 callgsubr
          hintmask 11101010
          -275 -866 -93 callgsubr
        </CharString>
        <CharString name="edieresis">
          -36 callgsubr
          173 363 144 callgsubr
          -83 326 55 321 -250 326 hintmask 00010101
          932 1338 -106 callgsubr
          hintmask 11101010
          -419 -908 -93 callgsubr
        </CharString>
        <CharString name="edotaccent">
          -36 callgsubr
          173 363 144 callgsubr
          126 368 -196 321 hintmask 11101010
          61 430 -106 callsubr
          hintmask 00010100
          288 763 -100 callsubr
        </CharString>
        <CharString name="egrave">
          -36 callgsubr
          76 502 144 callgsubr
          -157 491 -36 321 hintmask 11101010
          61 430 -106 callsubr
          hintmask 00010100
          229 666 -58 callgsubr
        </CharString>
        <CharString name="eight">
          -8 -20 126 1332 112 hstemhm
          88 293 -127 292 289 307 -203 257 hintmask 00000000
          hintmask 11100100
          88 349 rmoveto
          -278 234 -91 239 vhcurveto
          hintmask 11101000
          282 299 175 271 169 -127 153 -141 102 hvcurveto
          hintmask 11010100
          183 94 139 159 162 vvcurveto
          186 -121 99 -307 -310 -204 -184 -228 -152 97 -126 100 -88 vhcurveto
          hintmask 11100100
          -201 -80 -162 -163 -180 vvcurveto
          660 601 rmoveto
          hintmask 11010100
          -123 86 -79 74 105 vvcurveto
          140 87 83 133 91 82 -53 -132 vhcurveto
          hintmask 11100100
          -153 -92 -91 -99 -59 vhcurveto
          -367 -603 rmoveto
          158 96 102 107 67 vhcurveto
          hintmask 11101000
          148 -114 103 -54 -146 vvcurveto
          -162 -113 -92 -125 vhcurveto
          hintmask 11100100
          -157 -59 130 111 hvcurveto
          endchar
        </CharString>
        <CharString name="ellipsis">
          314 1 -21 hstem
          36 339 187 339 187 339 cntrmask 01110000
          1088 141 -65 callgsubr
          -526 hmoveto
          -73 callsubr
          -526 hmoveto
          -73 callsubr
          endchar
        </CharString>
        <CharString name="emacron">
          -36 callgsubr
          240 209 144 callgsubr
          -23 591 -270 321 hintmask 11101010
          61 430 -106 callsubr
          hintmask 00010100
          -23 830 -42 callsubr
          endchar
        </CharString>
        <CharString name="emdash">
          772 674 197 hstem
          248 1625 vstem
          248 674 rmoveto
          1590 hlineto
          35 197 rlineto
          -1591 hlineto
          endchar
        </CharString>
        <CharString name="endash">
          284 674 197 hstem
          248 1137 vstem
          248 674 rmoveto
          1097 hlineto
          40 197 rlineto
          -1097 hlineto
          endchar
        </CharString>
        <CharString name="eng">
          27 -528 146 403 -21 965 197 -23 -20 44 -20 hstemhm
          83 1092 hintmask 00000000
          hintmask 11001100
          169 callgsubr
          98 719 rlineto
          hintmask 11100100
          171 83 98 75 63 hhcurveto
          63 26 -53 -87 -11 hvcurveto
          -43 -351 -16 -275 -28 -199 rrcurveto
          -253 -35 -55 -129 -155 hhcurveto
          -11 -45 4 8 -18 hvcurveto
          -38 -121 rlineto
          -24 22 75 -13 73 hhcurveto
          171 callgsubr
          98 430 86 hvcurveto
          41 204 29 279 32 378 rrcurveto
          234 19 -136 67 -148 hhcurveto
          -181 -118 -111 -121 -76 hvcurveto
          hintmask 11010100
          16 209 rlineto
          hintmask 11001100
          75 callgsubr
          endchar
        </CharString>
        <CharString name="eogonek">
          -184 171 callsubr
          258 179 305 128 callsubr
          140 144 callgsubr
          -74 281 91 321 hintmask 00000000
          hintmask 11110110
          381 -192 rmoveto
          -22 -34 -13 -50 -30 -4 callsubr
          -44 -56 -42 -31 -55 hhcurveto
          -39 -28 25 57 78 95 110 104 86 hvcurveto
          22 15 21 16 18 16 6 5 rcurveline
          -1 hlineto
          35 32 25 32 17 27 -64 103 rcurveline
          -69 -53 -86 -96 -159 hhcurveto
          hintmask 11111010
          -116 -71 97 208 hvcurveto
          252 6 377 122 -10 330 rrcurveto
          141 -6 -95 111 -228 hhcurveto
          -367 -284 -308 -427 2 hvcurveto
          -228 1 116 -231 321 hhcurveto
          7 7 0 1 8 hvcurveto
          hintmask 11110110
          -50 -44 -49 -54 -41 -66 rrcurveto
          hintmask 11111010
          39 767 rmoveto
          186 11 51 264 154 hhcurveto
          53 25 -48 -91 4 hvcurveto
          6 -197 -187 -107 -117 -7 rrcurveto
          endchar
        </CharString>
        <CharString name="equal">
          -201 149 callsubr
          149 838 rmoveto
          815 hlineto
          23 197 rlineto
          -815 hlineto
          -96 -726 rmoveto
          815 hlineto
          23 197 rlineto
          -815 hlineto
          endchar
        </CharString>
        <CharString name="estimated">
          178 -16 163 465 156 425 163 hstem
          125 375 454 362 vstem
          500 221 rmoveto
          391 806 vlineto
          10 51 0 83 86 vvcurveto
          -10 329 -239 200 -302 -5 rrcurveto
          -435 -7 -205 -286 -392 vvcurveto
          -430 239 -257 407 199 181 70 61 88 vhcurveto
          -73 151 rlineto
          -55 -72 -145 -64 -169 hhcurveto
          -108 -97 20 54 -75 hvcurveto
          547 vmoveto
          353 vlineto
          50 66 84 22 101 hhcurveto
          87 66 -15 -25 50 hvcurveto
          -385 vlineto
          endchar
        </CharString>
        <CharString name="eth">
          -71 -20 127 867 136 hstem
          60 337 403 339 vstem
          60 462 rmoveto
          -224 139 -258 297 405 238 346 476 268 -98 285 -213 206 vhcurveto
          144 167 -113 101 rlineto
          0 -78 -99 -66 -77 vhcurveto
          -102 70 -111 48 -80 23 -55 -159 rcurveline
          63 -20 75 -53 68 -58 -146 -161 rcurveline
          116 -98 133 153 86 -116 36 -125 -2 -76 rlinecurve
          23 -40 -47 6 -93 hhcurveto
          -320 -236 -244 -404 hvcurveto
          465 -355 rmoveto
          -99 -29 138 155 233 66 341 163 157 20 -178 -68 -3 hvcurveto
          -2 -42 -15 -120 -2 -15 rrcurveto
          -244 -26 -97 -200 -133 hhcurveto
          endchar
        </CharString>
        <CharString name="exclam">
          -548 1 -21 hstem
          116 339 vstem
          52 callsubr
          endchar
        </CharString>
        <CharString name="exclamdbl">
          68 1 -21 hstemhm
          116 339 277 339 hintmask 11000000
          52 callsubr
          hintmask 10100000
          741 387 rmoveto
          203 hlineto
          258 1250 rlineto
          -335 hlineto
          -251 -1637 -55 callsubr
        </CharString>
        <CharString name="exclamdown">
          -548 1343 21 hstem
          293 339 vstem
          507 816 rmoveto
          -203 hlineto
          -258 -1250 rlineto
          335 hlineto
          251 1637 113 callgsubr
        </CharString>
        <CharString name="f">
          133 callgsubr
          hstem
          -253 1172 vstem
          88 -156 rmoveto
          -41 callgsubr
          -59 -190 rcurveline
          -81 callgsubr
          endchar
        </CharString>
        <CharString name="f_f">
          154 -513 159 -159 165 1332 171 -5 79 callsubr
          1881 hintmask 00000000
          hintmask 01101010
          515 -299 rmoveto
          hintmask 10100110
          -59 -190 rlineto
          -81 callgsubr
          -137 -1140 rlineto
          hintmask 01101010
          -41 callgsubr
          rrcurveto
          -428 137 rmoveto
          hintmask 10101010
          -47 callgsubr
          -15 callgsubr
          hintmask 10011010
          -9 -55 -136 -63 rlineto
          hintmask 10101010
          46 callgsubr
          endchar
        </CharString>
        <CharString name="f_f_i">
          64 callgsubr
          2315 -368 368 hintmask 0000000000000000
          hintmask 1101000101000000
          1694 1505 rmoveto
          -27 callgsubr
          142 61 91 111 3 hvcurveto
          80 2 -66 63 callsubr
          -72 -87 -109 -3 hvcurveto
          -1179 -1810 -78 callsubr
        </CharString>
        <CharString name="f_f_i_dflt">
          64 callgsubr
          2274 hintmask 0000000000000000
          hintmask 1101000110000000
          515 -305 -78 callsubr
        </CharString>
        <CharString name="f_f_i_trk">
          783 -513 165 349 -21 1004 171 -16 -20 44 -20 371 156 hstemhm
          -253 1172 -484 1172 -124 498 hintmask 1010011000000000
          88 -156 rmoveto
          -41 callgsubr
          -59 -190 rcurveline
          -81 callgsubr
          hintmask 1010010100000000
          551 -1140 rmoveto
          -41 callgsubr
          -59 -190 rcurveline
          -81 callgsubr
          hintmask 0000000000000000
          573 -855 -100 callgsubr
          hintmask 0100100010000000
          52 callgsubr
          hintmask 0101000010000000
          -76 callsubr
          hintmask 0100100010000000
          330 1209 -100 callsubr
        </CharString>
        <CharString name="f_f_l">
          789 70 callgsubr
          171 -5 79 callsubr
          2282 -524 340 hintmask 00000000
          hintmask 11100110
          514 -305 rmoveto
          -58 -184 rlineto
          26 callsubr
          hintmask 11100101
          -7 callgsubr
          -138 -1146 rlineto
          -136 -18 -44 -56 -64 hhcurveto
          hintmask 11100110
          -48 -1 -95 44 -13 6 rrcurveto
          -427 143 rmoveto
          -47 callgsubr
          hintmask 11011010
          -15 callgsubr
          -9 -55 -136 -63 rlineto
          hintmask 11100110
          46 callgsubr
          endchar
        </CharString>
        <CharString name="f_i_trk">
          114 70 callgsubr
          171 -16 -20 44 -20 371 156 hstemhm
          -253 1565 hintmask 00000000
          hintmask 11100110
          87 -162 rmoveto
          -136 -18 -44 -56 -64 hhcurveto
          -48 -1 -95 44 -13 6 -58 -184 rcurveline
          -69 callsubr
          592 -855 -100 callgsubr
          hintmask 11010110
          52 callgsubr
          hintmask 11001110
          -55 24 -400 -52 -16 -89 115 -64 rlineto
          hintmask 11100110
          -51 -384 -37 -286 -24 -159 rrcurveto
          endchar
        </CharString>
        <CharString name="fi">
          114 70 callgsubr
          171 -16 -20 44 -20 371 156 hstemhm
          985 368 hintmask 00000000
          hintmask 11100110
          1147 1338 -103 callgsubr
          -1060 -1500 rmoveto
          -136 -18 -44 -56 -64 hhcurveto
          -48 -1 -95 44 -13 6 -58 -184 rcurveline
          -69 callsubr
          592 -855 -100 callgsubr
          hintmask 11010110
          52 callgsubr
          hintmask 11001110
          -55 24 -400 -52 -16 -89 115 -64 rlineto
          hintmask 11100110
          -51 -384 -37 -286 -24 -159 rrcurveto
          endchar
        </CharString>
        <CharString name="five">
          -148 -354 153 628 177 330 211 -211 227 hstemhm
          641 360 166 callgsubr
          66 -185 rmoveto
          -25 -144 rlineto
          -7 25 114 -18 65 hhcurveto
          432 324 243 368 180 -106 167 -271 -79 -121 -35 -28 -37 hvcurveto
          102 394 503 -1 rlineto
          hintmask 11011000
          55 228 rlineto
          -158 hlineto
          hintmask 11101000
          -22 -16 rlineto
          -617 hlineto
          -152 -732 61 -47 rlineto
          25 47 81 35 102 hhcurveto
          166 86 -97 -146 -176 -126 -209 -340 -37 -51 10 6 -21 hvcurveto
          endchar
        </CharString>
        <CharString name="fl">
          80 70 callgsubr
          171 359 156 hstemhm
          -253 1573 -524 340 hintmask 00000000
          hintmask 11111000
          87 -162 rmoveto
          -136 -18 -44 -56 -64 hhcurveto
          -48 -1 -95 44 -13 6 -58 -184 rcurveline
          26 callsubr
          hintmask 11110100
          -7 callgsubr
          endchar
        </CharString>
        <CharString name="florin">
          -206 964 191 319 216 hstem
          153 925 vstem
          179 -356 rmoveto
          298 hlineto
          162 1320 rlineto
          267 hlineto
          15 191 rlineto
          -254 hlineto
          16 130 rlineto
          163 20 100 26 76 hhcurveto
          135 23 -31 -10 25 hvcurveto
          16 240 rlineto
          7 -19 -54 10 -125 hhcurveto
          -189 -273 -191 -296 -43 hvcurveto
          -7 -48 -202 -56 -13 -135 rlineto
          196 hlineto
          endchar
        </CharString>
        <CharString name="four">
          0 0 192 hstem
          -40 1206 vstem
          26 hmoveto
          606 hlineto
          -49 -375 rlineto
          309 hlineto
          47 375 rlineto
          200 hlineto
          27 200 -193 -15 42 384 -314 -78 -44 -329 -406 -35 130 146 138 169 335 483 113 194 rlinecurve
          -315 137 rlineto
          -40 hlineto
          -117 -303 -330 -612 -205 -257 rrcurveto
          endchar
        </CharString>
        <CharString name="four.numr">
          -214 710 158 callgsubr
          239 -20 408 -20 hstemhm
          79 932 hintmask 00000000
          hintmask 10111000
          132 710 13 callgsubr
        </CharString>
        <CharString name="four.superior">
          -214 884 158 callgsubr
          239 -20 408 -20 hstemhm
          77 932 hintmask 00000000
          hintmask 10111000
          130 884 13 callgsubr
        </CharString>
        <CharString name="fraction">
          72 callgsubr
        </CharString>
        <CharString name="franc">
          -40 0 106 235 168 877 163 callsubr
          -80 1383 166 callsubr
          -12 hmoveto
          770 hlineto
          8 106 -277 30 26 205 rlineto
          262 hlineto
          18 168 rlineto
          -259 hlineto
          25 192 17 callgsubr
          hintmask 11001100
          145 callsubr
          hintmask 11100100
          145 -26 -115 -877 rlineto
          -248 hlineto
          -18 -168 rlineto
          244 hlineto
          -27 -205 -138 -30 rlineto
          endchar
        </CharString>
        <CharString name="g">
          -46 56 callgsubr
          hstem
          60 346 vstem
          153 -258 -89 callgsubr
          endchar
        </CharString>
        <CharString name="gbreve">
          -46 56 callgsubr
          137 217 128 callgsubr
          95 138 callsubr
          hintmask 11101000
          153 -258 -89 callgsubr
          hintmask 00010110
          259 1146 -83 callsubr
        </CharString>
        <CharString name="gcircumflex">
          -46 56 callgsubr
          75 432 128 callgsubr
          25 755 hintmask 00010100
          538 1239 -72 callgsubr
          hintmask 11101000
          -278 -1554 -89 callgsubr
          endchar
        </CharString>
        <CharString name="gcommaaccent">
          -44 56 callgsubr
          hstemhm
          62 346 -253 684 166 callgsubr
          741 1251 rmoveto
          154 104 11 93 rlineto
          -39 4 -28 47 50 vvcurveto
          72 45 44 23 13 vhcurveto
          3 26 -100 70 rlineto
          -103 -19 -124 -121 -171 vvcurveto
          -105 68 -88 90 -19 vhcurveto
          -586 -1509 rmoveto
          -51 -215 rlineto
          -19 40 130 -26 98 hhcurveto
          268 307 89 352 44 hvcurveto
          167 1240 -162 -46 rlineto
          21 -60 -104 25 -84 hhcurveto
          hintmask 11110000
          -453 -233 93 callgsubr
          103 -192 250 115 89 42 51 63 hvcurveto
          -25 -218 rlineto
          -176 -20 -65 -38 -136 hhcurveto
          hintmask 11101000
          -118 -143 82 19 -20 hvcurveto
          hintmask 11110000
          401 412 rmoveto
          -91 -57 95 164 267 73 343 243 33 31 -3 -8 28 hvcurveto
          -115 -785 rlineto
          -41 -39 -51 -32 -55 hhcurveto
          endchar
        </CharString>
        <CharString name="gdotaccent">
          -46 56 callgsubr
          175 363 128 callgsubr
          185 368 hintmask 11101000
          153 -258 -89 callgsubr
          hintmask 00010100
          199 1184 -100 callsubr
        </CharString>
        <CharString name="germandbls">
          -22 -16 132 -95 -21 1464 121 hstemhm
          650 269 -68 339 -294 330 hintmask 00000000
          hintmask 01100100
          39 177 callsubr
          107 867 rlineto
          436 47 94 161 139 hhcurveto
          92 45 -79 -98 -114 -57 -91 -81 -83 hvcurveto
          hintmask 10110000
          -63 -65 -45 -46 -95 vvcurveto
          -87 59 -113 50 -70 vhcurveto
          hintmask 10101000
          41 -64 51 -95 -79 vvcurveto
          -154 -76 -14 -87 -1 vhcurveto
          -72 -1 -87 63 -28 40 -26 -187 rcurveline
          -25 48 80 -22 161 hhcurveto
          256 170 130 227 150 -103 93 -68 82 hvcurveto
          hintmask 10110000
          -67 89 -33 42 44 vvcurveto
          hintmask 10100100
          165 307 -37 314 vvcurveto
          194 -196 108 -211 -253 -328 -58 -600 -86 vhcurveto
          endchar
        </CharString>
        <CharString name="grave">
          -723 1241 502 hstem
          0 491 vstem
          386 1241 -58 callgsubr
        </CharString>
        <CharString name="grave.cap">
          -742 1570 444 hstem
          36 463 vstem
          383 1570 53 callgsubr
        </CharString>
        <CharString name="greater">
          104 179 1148 hstem
          250 1025 vstem
          1275 817 rmoveto
          -890 510 -26 -241 606 -330 -682 -316 -33 -261 1009 510 rlineto
          endchar
        </CharString>
        <CharString name="greaterequal">
          100 0 170 hstem
          140 1068 vstem
          197 246 rmoveto
          1003 443 8 78 -895 442 -27 -232 567 -247 -623 -246 rlineto
          -90 -484 151 callgsubr
        </CharString>
        <CharString name="guillemotleft">
          614 142 954 hstemhm
          193 812 -136 812 hintmask 11000000
          193 530 42 callsubr
          hintmask 10100000
          654 -160 42 callsubr
          endchar
        </CharString>
        <CharString name="guillemotright">
          614 142 954 hstemhm
          101 812 -136 812 hintmask 11000000
          913 708 42 callgsubr
          hintmask 10100000
          698 160 42 callgsubr
          endchar
        </CharString>
        <CharString name="guilsinglleft">
          -74 142 954 hstem
          212 812 vstem
          212 530 42 callsubr
          endchar
        </CharString>
        <CharString name="guilsinglright">
          -74 142 954 hstem
          97 812 vstem
          909 708 42 callgsubr
          endchar
        </CharString>
        <CharString name="h">
          -45 callsubr
        </CharString>
        <CharString name="hbar">
          32 11 callgsubr
          0 -20 119 130 133 -20 hstemhm
          728 33 callsubr
          hintmask 00000000
          hintmask 01011101
          71 177 callsubr
          86 705 rlineto
          hintmask 01101101
          139 62 106 121 82 -75 callgsubr
          hintmask 10011110
          -22 callsubr
          -87 23 -84 -97 callsubr
          hintmask 01011101
          -69 callgsubr
          -163 -133 -101 -148 -88 vhcurveto
          42 348 rlineto
          215 hlineto
          16 130 rlineto
          -215 hlineto
          29 231 60 callgsubr
          -11 -90 rlineto
          -132 hlineto
          -16 -130 rlineto
          132 hlineto
          endchar
        </CharString>
        <CharString name="hcircumflex">
          32 11 callgsubr
          0 -20 331 -21 72 -20 hstemhm
          430 755 -457 33 callsubr
          hintmask 0000000000000000
          hintmask 0101010010000000
          71 177 callsubr
          86 705 rlineto
          hintmask 0110010010000000
          139 62 106 121 82 -75 callgsubr
          hintmask 1001010100000000
          -22 callsubr
          -87 23 -84 -97 callsubr
          hintmask 0101010010000000
          -69 callgsubr
          -163 -133 -100 -148 -88 vhcurveto
          87 708 60 callgsubr
          rlineto
          hintmask 0000101000000000
          287 -86 -84 callgsubr
        </CharString>
        <CharString name="hungarumlaut">
          -347 1231 511 hstem
          -47 913 vstem
          539 1231 -7 callsubr
        </CharString>
        <CharString name="hungarumlaut.cap">
          -342 1666 -21 hstem
          -30 932 vstem
          559 1570 -37 callgsubr
        </CharString>
        <CharString name="hyphen">
          29 callsubr
        </CharString>
        <CharString name="i">
          -72 callsubr
        </CharString>
        <CharString name="i.cy">
          -72 callsubr
        </CharString>
        <CharString name="i.dot">
          -72 callsubr
        </CharString>
        <CharString name="i.uc">
          -59 callgsubr
        </CharString>
        <CharString name="iacute">
          8 callsubr
          88 512 hstemhm
          107 498 -302 509 hintmask 00010100
          406 1231 -88 callsubr
          hintmask 00000000
          -193 -1183 -100 callgsubr
          hintmask 10101000
          52 callgsubr
          hintmask 11001000
          -76 callsubr
          endchar
        </CharString>
        <CharString name="ibreve">
          8 callsubr
          157 217 hstemhm
          107 498 -487 138 callsubr
          -89 callsubr
          hintmask 00010110
          320 1171 -83 callsubr
        </CharString>
        <CharString name="icircumflex">
          8 callsubr
          95 432 hstemhm
          48 755 -696 498 hintmask 00011000
          155 1239 -72 callgsubr
          hintmask 00000000
          62 -1167 -100 callgsubr
          hintmask 10100100
          52 callgsubr
          hintmask 11000100
          -76 callsubr
          endchar
        </CharString>
        <CharString name="idieresis">
          88 callgsubr
          49 326 -268 498 -104 326 hintmask 00011010
          644 1338 -106 callgsubr
          hintmask 00000000
          -82 -1209 -100 callgsubr
          hintmask 10100100
          52 callgsubr
          hintmask 11000100
          -76 callsubr
          endchar
        </CharString>
        <CharString name="igrave">
          8 callsubr
          98 502 hstemhm
          -25 491 -359 498 hintmask 00000000
          hintmask 10100100
          -74 callgsubr
          hintmask 11000100
          52 callgsubr
          hintmask 10100100
          -76 callsubr
          hintmask 00011000
          251 1112 -58 callgsubr
        </CharString>
        <CharString name="ij">
          61 -528 146 383 12 callgsubr
          195 363 hstemhm
          107 498 -327 368 -223 828 hintmask 00000000
          hintmask 10010001
          788 65 -77 callgsubr
          hintmask 10100001
          80 callsubr
          hintmask 10010001
          5 callsubr
          hintmask 00000000
          -783 -851 -100 callgsubr
          hintmask 01010100
          52 callgsubr
          hintmask 01100100
          -76 callsubr
          hintmask 01010100
          330 1209 -103 callgsubr
          hintmask 00001010
          661 hmoveto
          142 61 91 111 3 hvcurveto
          80 2 -66 63 callsubr
          -72 6 callgsubr
          75 -84 89 hhcurveto
          endchar
        </CharString>
        <CharString name="ij_acutecomb">
          61 -528 146 383 12 callgsubr
          88 512 hstemhm
          107 1144 -259 509 166 callsubr
          406 1231 -88 callsubr
          158 -1682 rmoveto
          -38 -121 rlineto
          -25 27 64 -12 80 hhcurveto
          248 228 70 callsubr
          hintmask 11100100
          80 callsubr
          hintmask 11010100
          -52 24 -451 -51 -21 -81 166 -51 -105 -915 rlineto
          -235 -27 -37 -212 -189 hhcurveto
          -10 -46 6 6 -18 hvcurveto
          -351 499 -100 callgsubr
          hintmask 11100100
          52 callgsubr
          hintmask 11010100
          -76 callsubr
          hintmask 00001010
          985 1102 16 callsubr
        </CharString>
        <CharString name="imacron">
          8 callsubr
          262 209 hstemhm
          107 498 -496 591 -89 callsubr
          hintmask 00010100
          -1 1276 -42 callsubr
          endchar
        </CharString>
        <CharString name="infinity">
          1154 127 204 -204 229 544 219 -214 214 hstemhm
          195 281 1485 263 hintmask 00000000
          hintmask 10011100
          195 591 rmoveto
          hintmask 01011100
          -258 1 223 -206 263 hhcurveto
          260 148 142 142 112 hvcurveto
          hintmask 10101100
          -140 115 136 -144 249 hhcurveto
          319 209 225 313 -6 hvcurveto
          258 -5 -220 196 -263 hhcurveto
          -245 -155 -139 -141 -116 hvcurveto
          hintmask 10011100
          138 -117 -142 142 -245 hhcurveto
          -310 -212 -225 -303 1 hvcurveto
          hintmask 01011100
          281 38 rmoveto
          128 -8 94 148 111 hhcurveto
          221 102 -215 -131 83 hvcurveto
          -124 -91 -103 -79 -123 hhcurveto
          -182 -95 129 144 -9 hvcurveto
          hintmask 10101100
          870 67 rmoveto
          122 93 106 82 120 hhcurveto
          202 87 -139 -144 7 hvcurveto
          -168 8 -74 -118 -101 hhcurveto
          -226 -129 233 132 -93 hvcurveto
          endchar
        </CharString>
</ttFont>
